<?xml version="1.0" encoding="utf-8" standalone="no"?>
<!DOCTYPE svg PUBLIC "-//W3C//DTD SVG 1.1//EN"
  "http://www.w3.org/Graphics/SVG/1.1/DTD/svg11.dtd">
<svg xmlns:xlink="http://www.w3.org/1999/xlink" width="901.44pt" height="513.36pt" viewBox="0 0 901.44 513.36" xmlns="http://www.w3.org/2000/svg" version="1.1">
 <metadata>
  <rdf:RDF xmlns:dc="http://purl.org/dc/elements/1.1/" xmlns:cc="http://creativecommons.org/ns#" xmlns:rdf="http://www.w3.org/1999/02/22-rdf-syntax-ns#">
   <cc:Work>
    <dc:type rdf:resource="http://purl.org/dc/dcmitype/StillImage"/>
    <dc:date>2025-09-13T16:41:13.187508</dc:date>
    <dc:format>image/svg+xml</dc:format>
    <dc:creator>
     <cc:Agent>
      <dc:title>Matplotlib v3.6.3, https://matplotlib.org/</dc:title>
     </cc:Agent>
    </dc:creator>
   </cc:Work>
  </rdf:RDF>
 </metadata>
 <defs>
  <style type="text/css">*{stroke-linejoin: round; stroke-linecap: butt}</style>
 </defs>
 <g id="figure_1">
  <g id="patch_1">
   <path d="M 0 513.36 
L 901.44 513.36 
L 901.44 -0 
L 0 -0 
z
" style="fill: #ffffff"/>
  </g>
  <g id="axes_1">
   <g id="patch_2">
    <path d="M 228.96 411.912 
C 270.128008 411.912 309.615423 395.555777 338.7256 366.4456 
C 367.835777 337.335423 384.192 297.848008 384.192 256.68 
C 384.192 215.511992 367.835777 176.024577 338.7256 146.9144 
C 309.615423 117.804223 270.128008 101.448 228.96 101.448 
C 187.791992 101.448 148.304577 117.804223 119.1944 146.9144 
C 90.084223 176.024577 73.728 215.511992 73.728 256.68 
C 73.728 297.848008 90.084223 337.335423 119.1944 366.4456 
C 148.304577 395.555777 187.791992 411.912 228.96 411.912 
L 228.96 411.912 
z
" clip-path="url(#p732f3897c9)" style="fill: none; stroke: #6c6f73; stroke-width: 2; stroke-linejoin: miter"/>
   </g>
   <g id="patch_3">
    <path d="M 228.96 373.104 
C 259.836006 373.104 289.451567 360.836833 311.2842 339.0042 
C 333.116833 317.171567 345.384 287.556006 345.384 256.68 
C 345.384 225.803994 333.116833 196.188433 311.2842 174.3558 
C 289.451567 152.523167 259.836006 140.256 228.96 140.256 
C 198.083994 140.256 168.468433 152.523167 146.6358 174.3558 
C 124.803167 196.188433 112.536 225.803994 112.536 256.68 
C 112.536 287.556006 124.803167 317.171567 146.6358 339.0042 
C 168.468433 360.836833 198.083994 373.104 228.96 373.104 
L 228.96 373.104 
z
" clip-path="url(#p732f3897c9)" style="fill: none; stroke: #6c6f73; stroke-width: 1.2; stroke-linejoin: miter"/>
   </g>
   <g id="patch_4">
    <path d="M 228.96 334.296 
C 249.544004 334.296 269.287711 326.117889 283.8428 311.5628 
C 298.397889 297.007711 306.576 277.264004 306.576 256.68 
C 306.576 236.095996 298.397889 216.352289 283.8428 201.7972 
C 269.287711 187.242111 249.544004 179.064 228.96 179.064 
C 208.375996 179.064 188.632289 187.242111 174.0772 201.7972 
C 159.522111 216.352289 151.344 236.095996 151.344 256.68 
C 151.344 277.264004 159.522111 297.007711 174.0772 311.5628 
C 188.632289 326.117889 208.375996 334.296 228.96 334.296 
L 228.96 334.296 
z
" clip-path="url(#p732f3897c9)" style="fill: none; stroke: #6c6f73; stroke-width: 1.2; stroke-linejoin: miter"/>
   </g>
   <g id="patch_5">
    <path d="M 228.96 295.488 
C 239.252002 295.488 249.123856 291.398944 256.4014 284.1214 
C 263.678944 276.843856 267.768 266.972002 267.768 256.68 
C 267.768 246.387998 263.678944 236.516144 256.4014 229.2386 
C 249.123856 221.961056 239.252002 217.872 228.96 217.872 
C 218.667998 217.872 208.796144 221.961056 201.5186 229.2386 
C 194.241056 236.516144 190.152 246.387998 190.152 256.68 
C 190.152 266.972002 194.241056 276.843856 201.5186 284.1214 
C 208.796144 291.398944 218.667998 295.488 228.96 295.488 
L 228.96 295.488 
z
" clip-path="url(#p732f3897c9)" style="fill: none; stroke: #6c6f73; stroke-width: 1.2; stroke-linejoin: miter"/>
   </g>
   <g id="PatchCollection_1">
    <path d="M 356.411208 227.962672 
C 357.852088 227.962672 359.234148 227.390204 360.253004 226.371348 
C 361.27186 225.352491 361.844328 223.970432 361.844328 222.529552 
C 361.844328 221.088671 361.27186 219.706612 360.253004 218.687756 
C 359.234148 217.668899 357.852088 217.096432 356.411208 217.096432 
C 354.970328 217.096432 353.588268 217.668899 352.569412 218.687756 
C 351.550556 219.706612 350.978088 221.088671 350.978088 222.529552 
C 350.978088 223.970432 351.550556 225.352491 352.569412 226.371348 
C 353.588268 227.390204 354.970328 227.962672 356.411208 227.962672 
z
" clip-path="url(#p732f3897c9)" style="fill: #3a3d40; fill-opacity: 0.9"/>
    <path d="M 322.26076 168.81236 
C 323.70164 168.81236 325.0837 168.239892 326.102556 167.221036 
C 327.121412 166.20218 327.69388 164.82012 327.69388 163.37924 
C 327.69388 161.93836 327.121412 160.5563 326.102556 159.537444 
C 325.0837 158.518588 323.70164 157.94612 322.26076 157.94612 
C 320.81988 157.94612 319.43782 158.518588 318.418964 159.537444 
C 317.400108 160.5563 316.82764 161.93836 316.82764 163.37924 
C 316.82764 164.82012 317.400108 166.20218 318.418964 167.221036 
C 319.43782 168.239892 320.81988 168.81236 322.26076 168.81236 
z
" clip-path="url(#p732f3897c9)" style="fill: #3a3d40; fill-opacity: 0.9"/>
    <path d="M 263.110448 134.661912 
C 264.551329 134.661912 265.933388 134.089444 266.952244 133.070588 
C 267.971101 132.051732 268.543568 130.669672 268.543568 129.228792 
C 268.543568 127.787912 267.971101 126.405852 266.952244 125.386996 
C 265.933388 124.36814 264.551329 123.795672 263.110448 123.795672 
C 261.669568 123.795672 260.287509 124.36814 259.268652 125.386996 
C 258.249796 126.405852 257.677328 127.787912 257.677328 129.228792 
C 257.677328 130.669672 258.249796 132.051732 259.268652 133.070588 
C 260.287509 134.089444 261.669568 134.661912 263.110448 134.661912 
z
" clip-path="url(#p732f3897c9)" style="fill: #3a3d40; fill-opacity: 0.9"/>
    <path d="M 194.809552 134.661912 
C 196.250432 134.661912 197.632491 134.089444 198.651348 133.070588 
C 199.670204 132.051732 200.242672 130.669672 200.242672 129.228792 
C 200.242672 127.787912 199.670204 126.405852 198.651348 125.386996 
C 197.632491 124.36814 196.250432 123.795672 194.809552 123.795672 
C 193.368671 123.795672 191.986612 124.36814 190.967756 125.386996 
C 189.948899 126.405852 189.376432 127.787912 189.376432 129.228792 
C 189.376432 130.669672 189.948899 132.051732 190.967756 133.070588 
C 191.986612 134.089444 193.368671 134.661912 194.809552 134.661912 
z
" clip-path="url(#p732f3897c9)" style="fill: #3a3d40; fill-opacity: 0.9"/>
    <path d="M 135.65924 168.81236 
C 137.10012 168.81236 138.48218 168.239892 139.501036 167.221036 
C 140.519892 166.20218 141.09236 164.82012 141.09236 163.37924 
C 141.09236 161.93836 140.519892 160.5563 139.501036 159.537444 
C 138.48218 158.518588 137.10012 157.94612 135.65924 157.94612 
C 134.21836 157.94612 132.8363 158.518588 131.817444 159.537444 
C 130.798588 160.5563 130.22612 161.93836 130.22612 163.37924 
C 130.22612 164.82012 130.798588 166.20218 131.817444 167.221036 
C 132.8363 168.239892 134.21836 168.81236 135.65924 168.81236 
z
" clip-path="url(#p732f3897c9)" style="fill: #3a3d40; fill-opacity: 0.9"/>
    <path d="M 101.508792 227.962672 
C 102.949672 227.962672 104.331732 227.390204 105.350588 226.371348 
C 106.369444 225.352491 106.941912 223.970432 106.941912 222.529552 
C 106.941912 221.088671 106.369444 219.706612 105.350588 218.687756 
C 104.331732 217.668899 102.949672 217.096432 101.508792 217.096432 
C 100.067912 217.096432 98.685852 217.668899 97.666996 218.687756 
C 96.64814 219.706612 96.075672 221.088671 96.075672 222.529552 
C 96.075672 223.970432 96.64814 225.352491 97.666996 226.371348 
C 98.685852 227.390204 100.067912 227.962672 101.508792 227.962672 
z
" clip-path="url(#p732f3897c9)" style="fill: #3a3d40; fill-opacity: 0.9"/>
    <path d="M 101.508792 296.263568 
C 102.949672 296.263568 104.331732 295.691101 105.350588 294.672244 
C 106.369444 293.653388 106.941912 292.271329 106.941912 290.830448 
C 106.941912 289.389568 106.369444 288.007509 105.350588 286.988652 
C 104.331732 285.969796 102.949672 285.397328 101.508792 285.397328 
C 100.067912 285.397328 98.685852 285.969796 97.666996 286.988652 
C 96.64814 288.007509 96.075672 289.389568 96.075672 290.830448 
C 96.075672 292.271329 96.64814 293.653388 97.666996 294.672244 
C 98.685852 295.691101 100.067912 296.263568 101.508792 296.263568 
z
" clip-path="url(#p732f3897c9)" style="fill: #3a3d40; fill-opacity: 0.9"/>
    <path d="M 135.65924 355.41388 
C 137.10012 355.41388 138.48218 354.841412 139.501036 353.822556 
C 140.519892 352.8037 141.09236 351.42164 141.09236 349.98076 
C 141.09236 348.53988 140.519892 347.15782 139.501036 346.138964 
C 138.48218 345.120108 137.10012 344.54764 135.65924 344.54764 
C 134.21836 344.54764 132.8363 345.120108 131.817444 346.138964 
C 130.798588 347.15782 130.22612 348.53988 130.22612 349.98076 
C 130.22612 351.42164 130.798588 352.8037 131.817444 353.822556 
C 132.8363 354.841412 134.21836 355.41388 135.65924 355.41388 
z
" clip-path="url(#p732f3897c9)" style="fill: #3a3d40; fill-opacity: 0.9"/>
    <path d="M 194.809552 389.564328 
C 196.250432 389.564328 197.632491 388.99186 198.651348 387.973004 
C 199.670204 386.954148 200.242672 385.572088 200.242672 384.131208 
C 200.242672 382.690328 199.670204 381.308268 198.651348 380.289412 
C 197.632491 379.270556 196.250432 378.698088 194.809552 378.698088 
C 193.368671 378.698088 191.986612 379.270556 190.967756 380.289412 
C 189.948899 381.308268 189.376432 382.690328 189.376432 384.131208 
C 189.376432 385.572088 189.948899 386.954148 190.967756 387.973004 
C 191.986612 388.99186 193.368671 389.564328 194.809552 389.564328 
z
" clip-path="url(#p732f3897c9)" style="fill: #3a3d40; fill-opacity: 0.9"/>
    <path d="M 263.110448 389.564328 
C 264.551329 389.564328 265.933388 388.99186 266.952244 387.973004 
C 267.971101 386.954148 268.543568 385.572088 268.543568 384.131208 
C 268.543568 382.690328 267.971101 381.308268 266.952244 380.289412 
C 265.933388 379.270556 264.551329 378.698088 263.110448 378.698088 
C 261.669568 378.698088 260.287509 379.270556 259.268652 380.289412 
C 258.249796 381.308268 257.677328 382.690328 257.677328 384.131208 
C 257.677328 385.572088 258.249796 386.954148 259.268652 387.973004 
C 260.287509 388.99186 261.669568 389.564328 263.110448 389.564328 
z
" clip-path="url(#p732f3897c9)" style="fill: #3a3d40; fill-opacity: 0.9"/>
    <path d="M 322.26076 355.41388 
C 323.70164 355.41388 325.0837 354.841412 326.102556 353.822556 
C 327.121412 352.8037 327.69388 351.42164 327.69388 349.98076 
C 327.69388 348.53988 327.121412 347.15782 326.102556 346.138964 
C 325.0837 345.120108 323.70164 344.54764 322.26076 344.54764 
C 320.81988 344.54764 319.43782 345.120108 318.418964 346.138964 
C 317.400108 347.15782 316.82764 348.53988 316.82764 349.98076 
C 316.82764 351.42164 317.400108 352.8037 318.418964 353.822556 
C 319.43782 354.841412 320.81988 355.41388 322.26076 355.41388 
z
" clip-path="url(#p732f3897c9)" style="fill: #3a3d40; fill-opacity: 0.9"/>
    <path d="M 356.411208 296.263568 
C 357.852088 296.263568 359.234148 295.691101 360.253004 294.672244 
C 361.27186 293.653388 361.844328 292.271329 361.844328 290.830448 
C 361.844328 289.389568 361.27186 288.007509 360.253004 286.988652 
C 359.234148 285.969796 357.852088 285.397328 356.411208 285.397328 
C 354.970328 285.397328 353.588268 285.969796 352.569412 286.988652 
C 351.550556 288.007509 350.978088 289.389568 350.978088 290.830448 
C 350.978088 292.271329 351.550556 293.653388 352.569412 294.672244 
C 353.588268 295.691101 354.970328 296.263568 356.411208 296.263568 
z
" clip-path="url(#p732f3897c9)" style="fill: #3a3d40; fill-opacity: 0.9"/>
   </g>
   <g id="patch_6">
    <path d="M 672.48 411.912 
C 713.648008 411.912 753.135423 395.555777 782.2456 366.4456 
C 811.355777 337.335423 827.712 297.848008 827.712 256.68 
C 827.712 215.511992 811.355777 176.024577 782.2456 146.9144 
C 753.135423 117.804223 713.648008 101.448 672.48 101.448 
C 631.311992 101.448 591.824577 117.804223 562.7144 146.9144 
C 533.604223 176.024577 517.248 215.511992 517.248 256.68 
C 517.248 297.848008 533.604223 337.335423 562.7144 366.4456 
C 591.824577 395.555777 631.311992 411.912 672.48 411.912 
L 672.48 411.912 
z
" clip-path="url(#p732f3897c9)" style="fill: none; stroke: #5b2ca0; stroke-width: 2; stroke-linejoin: miter"/>
   </g>
   <g id="patch_7">
    <path d="M 672.48 373.104 
C 703.356006 373.104 732.971567 360.836833 754.8042 339.0042 
C 776.636833 317.171567 788.904 287.556006 788.904 256.68 
C 788.904 225.803994 776.636833 196.188433 754.8042 174.3558 
C 732.971567 152.523167 703.356006 140.256 672.48 140.256 
C 641.603994 140.256 611.988433 152.523167 590.1558 174.3558 
C 568.323167 196.188433 556.056 225.803994 556.056 256.68 
C 556.056 287.556006 568.323167 317.171567 590.1558 339.0042 
C 611.988433 360.836833 641.603994 373.104 672.48 373.104 
L 672.48 373.104 
z
" clip-path="url(#p732f3897c9)" style="fill: none; stroke: #5b2ca0; stroke-width: 1.2; stroke-linejoin: miter"/>
   </g>
   <g id="patch_8">
    <path d="M 672.48 334.296 
C 693.064004 334.296 712.807711 326.117889 727.3628 311.5628 
C 741.917889 297.007711 750.096 277.264004 750.096 256.68 
C 750.096 236.095996 741.917889 216.352289 727.3628 201.7972 
C 712.807711 187.242111 693.064004 179.064 672.48 179.064 
C 651.895996 179.064 632.152289 187.242111 617.5972 201.7972 
C 603.042111 216.352289 594.864 236.095996 594.864 256.68 
C 594.864 277.264004 603.042111 297.007711 617.5972 311.5628 
C 632.152289 326.117889 651.895996 334.296 672.48 334.296 
L 672.48 334.296 
z
" clip-path="url(#p732f3897c9)" style="fill: none; stroke: #5b2ca0; stroke-width: 1.2; stroke-linejoin: miter"/>
   </g>
   <g id="patch_9">
    <path d="M 672.48 295.488 
C 682.772002 295.488 692.643856 291.398944 699.9214 284.1214 
C 707.198944 276.843856 711.288 266.972002 711.288 256.68 
C 711.288 246.387998 707.198944 236.516144 699.9214 229.2386 
C 692.643856 221.961056 682.772002 217.872 672.48 217.872 
C 662.187998 217.872 652.316144 221.961056 645.0386 229.2386 
C 637.761056 236.516144 633.672 246.387998 633.672 256.68 
C 633.672 266.972002 637.761056 276.843856 645.0386 284.1214 
C 652.316144 291.398944 662.187998 295.488 672.48 295.488 
L 672.48 295.488 
z
" clip-path="url(#p732f3897c9)" style="fill: none; stroke: #5b2ca0; stroke-width: 1.2; stroke-linejoin: miter"/>
   </g>
   <g id="PatchCollection_2">
    <path d="M 799.931208 227.962672 
C 801.372088 227.962672 802.754148 227.390204 803.773004 226.371348 
C 804.79186 225.352491 805.364328 223.970432 805.364328 222.529552 
C 805.364328 221.088671 804.79186 219.706612 803.773004 218.687756 
C 802.754148 217.668899 801.372088 217.096432 799.931208 217.096432 
C 798.490328 217.096432 797.108268 217.668899 796.089412 218.687756 
C 795.070556 219.706612 794.498088 221.088671 794.498088 222.529552 
C 794.498088 223.970432 795.070556 225.352491 796.089412 226.371348 
C 797.108268 227.390204 798.490328 227.962672 799.931208 227.962672 
z
" clip-path="url(#p732f3897c9)" style="fill: #b8860b; fill-opacity: 0.9"/>
    <path d="M 765.78076 168.81236 
C 767.22164 168.81236 768.6037 168.239892 769.622556 167.221036 
C 770.641412 166.20218 771.21388 164.82012 771.21388 163.37924 
C 771.21388 161.93836 770.641412 160.5563 769.622556 159.537444 
C 768.6037 158.518588 767.22164 157.94612 765.78076 157.94612 
C 764.33988 157.94612 762.95782 158.518588 761.938964 159.537444 
C 760.920108 160.5563 760.34764 161.93836 760.34764 163.37924 
C 760.34764 164.82012 760.920108 166.20218 761.938964 167.221036 
C 762.95782 168.239892 764.33988 168.81236 765.78076 168.81236 
z
" clip-path="url(#p732f3897c9)" style="fill: #b8860b; fill-opacity: 0.9"/>
    <path d="M 706.630448 134.661912 
C 708.071329 134.661912 709.453388 134.089444 710.472244 133.070588 
C 711.491101 132.051732 712.063568 130.669672 712.063568 129.228792 
C 712.063568 127.787912 711.491101 126.405852 710.472244 125.386996 
C 709.453388 124.36814 708.071329 123.795672 706.630448 123.795672 
C 705.189568 123.795672 703.807509 124.36814 702.788652 125.386996 
C 701.769796 126.405852 701.197328 127.787912 701.197328 129.228792 
C 701.197328 130.669672 701.769796 132.051732 702.788652 133.070588 
C 703.807509 134.089444 705.189568 134.661912 706.630448 134.661912 
z
" clip-path="url(#p732f3897c9)" style="fill: #b8860b; fill-opacity: 0.9"/>
    <path d="M 638.329552 134.661912 
C 639.770432 134.661912 641.152491 134.089444 642.171348 133.070588 
C 643.190204 132.051732 643.762672 130.669672 643.762672 129.228792 
C 643.762672 127.787912 643.190204 126.405852 642.171348 125.386996 
C 641.152491 124.36814 639.770432 123.795672 638.329552 123.795672 
C 636.888671 123.795672 635.506612 124.36814 634.487756 125.386996 
C 633.468899 126.405852 632.896432 127.787912 632.896432 129.228792 
C 632.896432 130.669672 633.468899 132.051732 634.487756 133.070588 
C 635.506612 134.089444 636.888671 134.661912 638.329552 134.661912 
z
" clip-path="url(#p732f3897c9)" style="fill: #b8860b; fill-opacity: 0.9"/>
    <path d="M 579.17924 168.81236 
C 580.62012 168.81236 582.00218 168.239892 583.021036 167.221036 
C 584.039892 166.20218 584.61236 164.82012 584.61236 163.37924 
C 584.61236 161.93836 584.039892 160.5563 583.021036 159.537444 
C 582.00218 158.518588 580.62012 157.94612 579.17924 157.94612 
C 577.73836 157.94612 576.3563 158.518588 575.337444 159.537444 
C 574.318588 160.5563 573.74612 161.93836 573.74612 163.37924 
C 573.74612 164.82012 574.318588 166.20218 575.337444 167.221036 
C 576.3563 168.239892 577.73836 168.81236 579.17924 168.81236 
z
" clip-path="url(#p732f3897c9)" style="fill: #b8860b; fill-opacity: 0.9"/>
    <path d="M 545.028792 227.962672 
C 546.469672 227.962672 547.851732 227.390204 548.870588 226.371348 
C 549.889444 225.352491 550.461912 223.970432 550.461912 222.529552 
C 550.461912 221.088671 549.889444 219.706612 548.870588 218.687756 
C 547.851732 217.668899 546.469672 217.096432 545.028792 217.096432 
C 543.587912 217.096432 542.205852 217.668899 541.186996 218.687756 
C 540.16814 219.706612 539.595672 221.088671 539.595672 222.529552 
C 539.595672 223.970432 540.16814 225.352491 541.186996 226.371348 
C 542.205852 227.390204 543.587912 227.962672 545.028792 227.962672 
z
" clip-path="url(#p732f3897c9)" style="fill: #b8860b; fill-opacity: 0.9"/>
    <path d="M 545.028792 296.263568 
C 546.469672 296.263568 547.851732 295.691101 548.870588 294.672244 
C 549.889444 293.653388 550.461912 292.271329 550.461912 290.830448 
C 550.461912 289.389568 549.889444 288.007509 548.870588 286.988652 
C 547.851732 285.969796 546.469672 285.397328 545.028792 285.397328 
C 543.587912 285.397328 542.205852 285.969796 541.186996 286.988652 
C 540.16814 288.007509 539.595672 289.389568 539.595672 290.830448 
C 539.595672 292.271329 540.16814 293.653388 541.186996 294.672244 
C 542.205852 295.691101 543.587912 296.263568 545.028792 296.263568 
z
" clip-path="url(#p732f3897c9)" style="fill: #b8860b; fill-opacity: 0.9"/>
    <path d="M 579.17924 355.41388 
C 580.62012 355.41388 582.00218 354.841412 583.021036 353.822556 
C 584.039892 352.8037 584.61236 351.42164 584.61236 349.98076 
C 584.61236 348.53988 584.039892 347.15782 583.021036 346.138964 
C 582.00218 345.120108 580.62012 344.54764 579.17924 344.54764 
C 577.73836 344.54764 576.3563 345.120108 575.337444 346.138964 
C 574.318588 347.15782 573.74612 348.53988 573.74612 349.98076 
C 573.74612 351.42164 574.318588 352.8037 575.337444 353.822556 
C 576.3563 354.841412 577.73836 355.41388 579.17924 355.41388 
z
" clip-path="url(#p732f3897c9)" style="fill: #b8860b; fill-opacity: 0.9"/>
    <path d="M 638.329552 389.564328 
C 639.770432 389.564328 641.152491 388.99186 642.171348 387.973004 
C 643.190204 386.954148 643.762672 385.572088 643.762672 384.131208 
C 643.762672 382.690328 643.190204 381.308268 642.171348 380.289412 
C 641.152491 379.270556 639.770432 378.698088 638.329552 378.698088 
C 636.888671 378.698088 635.506612 379.270556 634.487756 380.289412 
C 633.468899 381.308268 632.896432 382.690328 632.896432 384.131208 
C 632.896432 385.572088 633.468899 386.954148 634.487756 387.973004 
C 635.506612 388.99186 636.888671 389.564328 638.329552 389.564328 
z
" clip-path="url(#p732f3897c9)" style="fill: #b8860b; fill-opacity: 0.9"/>
    <path d="M 706.630448 389.564328 
C 708.071329 389.564328 709.453388 388.99186 710.472244 387.973004 
C 711.491101 386.954148 712.063568 385.572088 712.063568 384.131208 
C 712.063568 382.690328 711.491101 381.308268 710.472244 380.289412 
C 709.453388 379.270556 708.071329 378.698088 706.630448 378.698088 
C 705.189568 378.698088 703.807509 379.270556 702.788652 380.289412 
C 701.769796 381.308268 701.197328 382.690328 701.197328 384.131208 
C 701.197328 385.572088 701.769796 386.954148 702.788652 387.973004 
C 703.807509 388.99186 705.189568 389.564328 706.630448 389.564328 
z
" clip-path="url(#p732f3897c9)" style="fill: #b8860b; fill-opacity: 0.9"/>
    <path d="M 765.78076 355.41388 
C 767.22164 355.41388 768.6037 354.841412 769.622556 353.822556 
C 770.641412 352.8037 771.21388 351.42164 771.21388 349.98076 
C 771.21388 348.53988 770.641412 347.15782 769.622556 346.138964 
C 768.6037 345.120108 767.22164 344.54764 765.78076 344.54764 
C 764.33988 344.54764 762.95782 345.120108 761.938964 346.138964 
C 760.920108 347.15782 760.34764 348.53988 760.34764 349.98076 
C 760.34764 351.42164 760.920108 352.8037 761.938964 353.822556 
C 762.95782 354.841412 764.33988 355.41388 765.78076 355.41388 
z
" clip-path="url(#p732f3897c9)" style="fill: #b8860b; fill-opacity: 0.9"/>
    <path d="M 799.931208 296.263568 
C 801.372088 296.263568 802.754148 295.691101 803.773004 294.672244 
C 804.79186 293.653388 805.364328 292.271329 805.364328 290.830448 
C 805.364328 289.389568 804.79186 288.007509 803.773004 286.988652 
C 802.754148 285.969796 801.372088 285.397328 799.931208 285.397328 
C 798.490328 285.397328 797.108268 285.969796 796.089412 286.988652 
C 795.070556 288.007509 794.498088 289.389568 794.498088 290.830448 
C 794.498088 292.271329 795.070556 293.653388 796.089412 294.672244 
C 797.108268 295.691101 798.490328 296.263568 799.931208 296.263568 
z
" clip-path="url(#p732f3897c9)" style="fill: #b8860b; fill-opacity: 0.9"/>
   </g>
   <g id="patch_10">
    <path d="M 350.928 234.72576 
L 500.616 321.148167 
L 500.616 148.303353 
L 350.928 234.72576 
z
" clip-path="url(#p732f3897c9)" style="fill: none; stroke: #1b6ca8; stroke-width: 2.2; stroke-linejoin: miter"/>
   </g>
   <g id="patch_11">
    <path d="M 550.512 278.63424 
L 400.824 192.211833 
L 400.824 365.056647 
L 550.512 278.63424 
z
" clip-path="url(#p732f3897c9)" style="fill: none; stroke: #1b6ca8; stroke-width: 2.2; stroke-linejoin: miter"/>
   </g>
   <g id="patch_12">
    <path d="M 450.72 311.5656 
C 465.275831 311.5656 479.237453 305.782507 489.52998 295.48998 
C 499.822507 285.197453 505.6056 271.235831 505.6056 256.68 
C 505.6056 242.124169 499.822507 228.162547 489.52998 217.87002 
C 479.237453 207.577493 465.275831 201.7944 450.72 201.7944 
C 436.164169 201.7944 422.202547 207.577493 411.91002 217.87002 
C 401.617493 228.162547 395.8344 242.124169 395.8344 256.68 
C 395.8344 271.235831 401.617493 285.197453 411.91002 295.48998 
C 422.202547 305.782507 436.164169 311.5656 450.72 311.5656 
L 450.72 311.5656 
z
" clip-path="url(#p732f3897c9)" style="fill: none; stroke: #1b6ca8; stroke-width: 1.8; stroke-linejoin: miter"/>
   </g>
   <g id="patch_13">
    <path d="M 391.734804 256.68 
Q 450.718072 256.68 507.465272 256.68 
" clip-path="url(#p732f3897c9)" style="fill: none; opacity: 0.9; stroke: #1b6ca8; stroke-width: 2; stroke-linecap: round"/>
    <path d="M 499.465272 252.68 
L 507.465272 256.68 
L 499.465272 260.68 
L 499.465272 252.68 
z
" clip-path="url(#p732f3897c9)" style="fill: #1b6ca8; opacity: 0.9; stroke: #1b6ca8; stroke-width: 2; stroke-linecap: round"/>
   </g>
   <g id="patch_14">
    <path d="M 613.498696 256.68 
Q 664.164117 256.68 712.593471 256.68 
" clip-path="url(#p732f3897c9)" style="fill: none; opacity: 0.9; stroke: #5b2ca0; stroke-width: 2; stroke-linecap: round"/>
    <path d="M 704.593471 252.68 
L 712.593471 256.68 
L 704.593471 260.68 
L 704.593471 252.68 
z
" clip-path="url(#p732f3897c9)" style="fill: #5b2ca0; opacity: 0.9; stroke: #5b2ca0; stroke-width: 2; stroke-linecap: round"/>
   </g>
   <g id="patch_15">
    <path d="M 230.959819 423 
Q 284.40142 423 335.606954 423 
" clip-path="url(#p732f3897c9)" style="fill: none; opacity: 0.9; stroke: #6c6f73; stroke-width: 2; stroke-linecap: round"/>
    <path d="M 327.606954 419 
L 335.606954 423 
L 327.606954 427 
L 327.606954 419 
z
" clip-path="url(#p732f3897c9)" style="fill: #6c6f73; opacity: 0.9; stroke: #6c6f73; stroke-width: 2; stroke-linecap: round"/>
   </g>
   <g id="patch_16">
    <path d="M 670.480181 90.36 
Q 617.03858 90.36 565.833046 90.36 
" clip-path="url(#p732f3897c9)" style="fill: none; opacity: 0.9; stroke: #b8860b; stroke-width: 2; stroke-linecap: round"/>
    <path d="M 573.833046 94.36 
L 565.833046 90.36 
L 573.833046 86.36 
L 573.833046 94.36 
z
" clip-path="url(#p732f3897c9)" style="fill: #b8860b; opacity: 0.9; stroke: #b8860b; stroke-width: 2; stroke-linecap: round"/>
   </g>
   <g id="line2d_1">
    <path d="M 7.2 506.16 
L 7.2 7.2 
" clip-path="url(#p732f3897c9)" style="fill: none; stroke: #f2f2f2; stroke-width: 0.3; stroke-linecap: square"/>
   </g>
   <g id="line2d_2">
    <path d="M 34.92 506.16 
L 34.92 7.2 
" clip-path="url(#p732f3897c9)" style="fill: none; stroke: #f2f2f2; stroke-width: 0.3; stroke-linecap: square"/>
   </g>
   <g id="line2d_3">
    <path d="M 62.64 506.16 
L 62.64 7.2 
" clip-path="url(#p732f3897c9)" style="fill: none; stroke: #f2f2f2; stroke-width: 0.3; stroke-linecap: square"/>
   </g>
   <g id="line2d_4">
    <path d="M 90.36 506.16 
L 90.36 7.2 
" clip-path="url(#p732f3897c9)" style="fill: none; stroke: #f2f2f2; stroke-width: 0.3; stroke-linecap: square"/>
   </g>
   <g id="line2d_5">
    <path d="M 118.08 506.16 
L 118.08 7.2 
" clip-path="url(#p732f3897c9)" style="fill: none; stroke: #f2f2f2; stroke-width: 0.3; stroke-linecap: square"/>
   </g>
   <g id="line2d_6">
    <path d="M 145.8 506.16 
L 145.8 7.2 
" clip-path="url(#p732f3897c9)" style="fill: none; stroke: #f2f2f2; stroke-width: 0.3; stroke-linecap: square"/>
   </g>
   <g id="line2d_7">
    <path d="M 173.52 506.16 
L 173.52 7.2 
" clip-path="url(#p732f3897c9)" style="fill: none; stroke: #f2f2f2; stroke-width: 0.3; stroke-linecap: square"/>
   </g>
   <g id="line2d_8">
    <path d="M 201.24 506.16 
L 201.24 7.2 
" clip-path="url(#p732f3897c9)" style="fill: none; stroke: #f2f2f2; stroke-width: 0.3; stroke-linecap: square"/>
   </g>
   <g id="line2d_9">
    <path d="M 228.96 506.16 
L 228.96 7.2 
" clip-path="url(#p732f3897c9)" style="fill: none; stroke: #f2f2f2; stroke-width: 0.3; stroke-linecap: square"/>
   </g>
   <g id="line2d_10">
    <path d="M 256.68 506.16 
L 256.68 7.2 
" clip-path="url(#p732f3897c9)" style="fill: none; stroke: #f2f2f2; stroke-width: 0.3; stroke-linecap: square"/>
   </g>
   <g id="line2d_11">
    <path d="M 284.4 506.16 
L 284.4 7.2 
" clip-path="url(#p732f3897c9)" style="fill: none; stroke: #f2f2f2; stroke-width: 0.3; stroke-linecap: square"/>
   </g>
   <g id="line2d_12">
    <path d="M 312.12 506.16 
L 312.12 7.2 
" clip-path="url(#p732f3897c9)" style="fill: none; stroke: #f2f2f2; stroke-width: 0.3; stroke-linecap: square"/>
   </g>
   <g id="line2d_13">
    <path d="M 339.84 506.16 
L 339.84 7.2 
" clip-path="url(#p732f3897c9)" style="fill: none; stroke: #f2f2f2; stroke-width: 0.3; stroke-linecap: square"/>
   </g>
   <g id="line2d_14">
    <path d="M 367.56 506.16 
L 367.56 7.2 
" clip-path="url(#p732f3897c9)" style="fill: none; stroke: #f2f2f2; stroke-width: 0.3; stroke-linecap: square"/>
   </g>
   <g id="line2d_15">
    <path d="M 395.28 506.16 
L 395.28 7.2 
" clip-path="url(#p732f3897c9)" style="fill: none; stroke: #f2f2f2; stroke-width: 0.3; stroke-linecap: square"/>
   </g>
   <g id="line2d_16">
    <path d="M 423 506.16 
L 423 7.2 
" clip-path="url(#p732f3897c9)" style="fill: none; stroke: #f2f2f2; stroke-width: 0.3; stroke-linecap: square"/>
   </g>
   <g id="line2d_17">
    <path d="M 450.72 506.16 
L 450.72 7.2 
" clip-path="url(#p732f3897c9)" style="fill: none; stroke: #f2f2f2; stroke-width: 0.3; stroke-linecap: square"/>
   </g>
   <g id="line2d_18">
    <path d="M 478.44 506.16 
L 478.44 7.2 
" clip-path="url(#p732f3897c9)" style="fill: none; stroke: #f2f2f2; stroke-width: 0.3; stroke-linecap: square"/>
   </g>
   <g id="line2d_19">
    <path d="M 506.16 506.16 
L 506.16 7.2 
" clip-path="url(#p732f3897c9)" style="fill: none; stroke: #f2f2f2; stroke-width: 0.3; stroke-linecap: square"/>
   </g>
   <g id="line2d_20">
    <path d="M 533.88 506.16 
L 533.88 7.2 
" clip-path="url(#p732f3897c9)" style="fill: none; stroke: #f2f2f2; stroke-width: 0.3; stroke-linecap: square"/>
   </g>
   <g id="line2d_21">
    <path d="M 561.6 506.16 
L 561.6 7.2 
" clip-path="url(#p732f3897c9)" style="fill: none; stroke: #f2f2f2; stroke-width: 0.3; stroke-linecap: square"/>
   </g>
   <g id="line2d_22">
    <path d="M 589.32 506.16 
L 589.32 7.2 
" clip-path="url(#p732f3897c9)" style="fill: none; stroke: #f2f2f2; stroke-width: 0.3; stroke-linecap: square"/>
   </g>
   <g id="line2d_23">
    <path d="M 617.04 506.16 
L 617.04 7.2 
" clip-path="url(#p732f3897c9)" style="fill: none; stroke: #f2f2f2; stroke-width: 0.3; stroke-linecap: square"/>
   </g>
   <g id="line2d_24">
    <path d="M 644.76 506.16 
L 644.76 7.2 
" clip-path="url(#p732f3897c9)" style="fill: none; stroke: #f2f2f2; stroke-width: 0.3; stroke-linecap: square"/>
   </g>
   <g id="line2d_25">
    <path d="M 672.48 506.16 
L 672.48 7.2 
" clip-path="url(#p732f3897c9)" style="fill: none; stroke: #f2f2f2; stroke-width: 0.3; stroke-linecap: square"/>
   </g>
   <g id="line2d_26">
    <path d="M 700.2 506.16 
L 700.2 7.2 
" clip-path="url(#p732f3897c9)" style="fill: none; stroke: #f2f2f2; stroke-width: 0.3; stroke-linecap: square"/>
   </g>
   <g id="line2d_27">
    <path d="M 727.92 506.16 
L 727.92 7.2 
" clip-path="url(#p732f3897c9)" style="fill: none; stroke: #f2f2f2; stroke-width: 0.3; stroke-linecap: square"/>
   </g>
   <g id="line2d_28">
    <path d="M 755.64 506.16 
L 755.64 7.2 
" clip-path="url(#p732f3897c9)" style="fill: none; stroke: #f2f2f2; stroke-width: 0.3; stroke-linecap: square"/>
   </g>
   <g id="line2d_29">
    <path d="M 783.36 506.16 
L 783.36 7.2 
" clip-path="url(#p732f3897c9)" style="fill: none; stroke: #f2f2f2; stroke-width: 0.3; stroke-linecap: square"/>
   </g>
   <g id="line2d_30">
    <path d="M 811.08 506.16 
L 811.08 7.2 
" clip-path="url(#p732f3897c9)" style="fill: none; stroke: #f2f2f2; stroke-width: 0.3; stroke-linecap: square"/>
   </g>
   <g id="line2d_31">
    <path d="M 838.8 506.16 
L 838.8 7.2 
" clip-path="url(#p732f3897c9)" style="fill: none; stroke: #f2f2f2; stroke-width: 0.3; stroke-linecap: square"/>
   </g>
   <g id="line2d_32">
    <path d="M 866.52 506.16 
L 866.52 7.2 
" clip-path="url(#p732f3897c9)" style="fill: none; stroke: #f2f2f2; stroke-width: 0.3; stroke-linecap: square"/>
   </g>
   <g id="line2d_33">
    <path d="M 894.24 506.16 
L 894.24 7.2 
" clip-path="url(#p732f3897c9)" style="fill: none; stroke: #f2f2f2; stroke-width: 0.3; stroke-linecap: square"/>
   </g>
   <g id="line2d_34">
    <path d="M 7.2 506.16 
L 894.24 506.16 
" clip-path="url(#p732f3897c9)" style="fill: none; stroke: #f2f2f2; stroke-width: 0.3; stroke-linecap: square"/>
   </g>
   <g id="line2d_35">
    <path d="M 7.2 478.44 
L 894.24 478.44 
" clip-path="url(#p732f3897c9)" style="fill: none; stroke: #f2f2f2; stroke-width: 0.3; stroke-linecap: square"/>
   </g>
   <g id="line2d_36">
    <path d="M 7.2 450.72 
L 894.24 450.72 
" clip-path="url(#p732f3897c9)" style="fill: none; stroke: #f2f2f2; stroke-width: 0.3; stroke-linecap: square"/>
   </g>
   <g id="line2d_37">
    <path d="M 7.2 423 
L 894.24 423 
" clip-path="url(#p732f3897c9)" style="fill: none; stroke: #f2f2f2; stroke-width: 0.3; stroke-linecap: square"/>
   </g>
   <g id="line2d_38">
    <path d="M 7.2 395.28 
L 894.24 395.28 
" clip-path="url(#p732f3897c9)" style="fill: none; stroke: #f2f2f2; stroke-width: 0.3; stroke-linecap: square"/>
   </g>
   <g id="line2d_39">
    <path d="M 7.2 367.56 
L 894.24 367.56 
" clip-path="url(#p732f3897c9)" style="fill: none; stroke: #f2f2f2; stroke-width: 0.3; stroke-linecap: square"/>
   </g>
   <g id="line2d_40">
    <path d="M 7.2 339.84 
L 894.24 339.84 
" clip-path="url(#p732f3897c9)" style="fill: none; stroke: #f2f2f2; stroke-width: 0.3; stroke-linecap: square"/>
   </g>
   <g id="line2d_41">
    <path d="M 7.2 312.12 
L 894.24 312.12 
" clip-path="url(#p732f3897c9)" style="fill: none; stroke: #f2f2f2; stroke-width: 0.3; stroke-linecap: square"/>
   </g>
   <g id="line2d_42">
    <path d="M 7.2 284.4 
L 894.24 284.4 
" clip-path="url(#p732f3897c9)" style="fill: none; stroke: #f2f2f2; stroke-width: 0.3; stroke-linecap: square"/>
   </g>
   <g id="line2d_43">
    <path d="M 7.2 256.68 
L 894.24 256.68 
" clip-path="url(#p732f3897c9)" style="fill: none; stroke: #f2f2f2; stroke-width: 0.3; stroke-linecap: square"/>
   </g>
   <g id="line2d_44">
    <path d="M 7.2 228.96 
L 894.24 228.96 
" clip-path="url(#p732f3897c9)" style="fill: none; stroke: #f2f2f2; stroke-width: 0.3; stroke-linecap: square"/>
   </g>
   <g id="line2d_45">
    <path d="M 7.2 201.24 
L 894.24 201.24 
" clip-path="url(#p732f3897c9)" style="fill: none; stroke: #f2f2f2; stroke-width: 0.3; stroke-linecap: square"/>
   </g>
   <g id="line2d_46">
    <path d="M 7.2 173.52 
L 894.24 173.52 
" clip-path="url(#p732f3897c9)" style="fill: none; stroke: #f2f2f2; stroke-width: 0.3; stroke-linecap: square"/>
   </g>
   <g id="line2d_47">
    <path d="M 7.2 145.8 
L 894.24 145.8 
" clip-path="url(#p732f3897c9)" style="fill: none; stroke: #f2f2f2; stroke-width: 0.3; stroke-linecap: square"/>
   </g>
   <g id="line2d_48">
    <path d="M 7.2 118.08 
L 894.24 118.08 
" clip-path="url(#p732f3897c9)" style="fill: none; stroke: #f2f2f2; stroke-width: 0.3; stroke-linecap: square"/>
   </g>
   <g id="line2d_49">
    <path d="M 7.2 90.36 
L 894.24 90.36 
" clip-path="url(#p732f3897c9)" style="fill: none; stroke: #f2f2f2; stroke-width: 0.3; stroke-linecap: square"/>
   </g>
   <g id="line2d_50">
    <path d="M 7.2 62.64 
L 894.24 62.64 
" clip-path="url(#p732f3897c9)" style="fill: none; stroke: #f2f2f2; stroke-width: 0.3; stroke-linecap: square"/>
   </g>
   <g id="line2d_51">
    <path d="M 7.2 34.92 
L 894.24 34.92 
" clip-path="url(#p732f3897c9)" style="fill: none; stroke: #f2f2f2; stroke-width: 0.3; stroke-linecap: square"/>
   </g>
   <g id="line2d_52">
    <path d="M 7.2 7.2 
L 894.24 7.2 
" clip-path="url(#p732f3897c9)" style="fill: none; stroke: #f2f2f2; stroke-width: 0.3; stroke-linecap: square"/>
   </g>
   <g id="line2d_53">
    <path d="M 244.4832 256.68 
L 384.192 256.68 
" clip-path="url(#p732f3897c9)" style="fill: none; stroke: #6c6f73; stroke-opacity: 0.9; stroke-width: 0.8; stroke-linecap: square"/>
   </g>
   <g id="line2d_54">
    <path d="M 243.95426 252.6623 
L 378.902598 216.503002 
" clip-path="url(#p732f3897c9)" style="fill: none; stroke: #6c6f73; stroke-opacity: 0.9; stroke-width: 0.8; stroke-linecap: square"/>
   </g>
   <g id="line2d_55">
    <path d="M 242.403486 248.9184 
L 363.394855 179.064 
" clip-path="url(#p732f3897c9)" style="fill: none; stroke: #6c6f73; stroke-opacity: 0.9; stroke-width: 0.8; stroke-linecap: square"/>
   </g>
   <g id="line2d_56">
    <path d="M 239.93656 245.70344 
L 338.7256 146.9144 
" clip-path="url(#p732f3897c9)" style="fill: none; stroke: #6c6f73; stroke-opacity: 0.9; stroke-width: 0.8; stroke-linecap: square"/>
   </g>
   <g id="line2d_57">
    <path d="M 236.7216 243.236514 
L 306.576 122.245145 
" clip-path="url(#p732f3897c9)" style="fill: none; stroke: #6c6f73; stroke-opacity: 0.9; stroke-width: 0.8; stroke-linecap: square"/>
   </g>
   <g id="line2d_58">
    <path d="M 232.9777 241.68574 
L 269.136998 106.737402 
" clip-path="url(#p732f3897c9)" style="fill: none; stroke: #6c6f73; stroke-opacity: 0.9; stroke-width: 0.8; stroke-linecap: square"/>
   </g>
   <g id="line2d_59">
    <path d="M 228.96 241.1568 
L 228.96 101.448 
" clip-path="url(#p732f3897c9)" style="fill: none; stroke: #6c6f73; stroke-opacity: 0.9; stroke-width: 0.8; stroke-linecap: square"/>
   </g>
   <g id="line2d_60">
    <path d="M 224.9423 241.68574 
L 188.783002 106.737402 
" clip-path="url(#p732f3897c9)" style="fill: none; stroke: #6c6f73; stroke-opacity: 0.9; stroke-width: 0.8; stroke-linecap: square"/>
   </g>
   <g id="line2d_61">
    <path d="M 221.1984 243.236514 
L 151.344 122.245145 
" clip-path="url(#p732f3897c9)" style="fill: none; stroke: #6c6f73; stroke-opacity: 0.9; stroke-width: 0.8; stroke-linecap: square"/>
   </g>
   <g id="line2d_62">
    <path d="M 217.98344 245.70344 
L 119.1944 146.9144 
" clip-path="url(#p732f3897c9)" style="fill: none; stroke: #6c6f73; stroke-opacity: 0.9; stroke-width: 0.8; stroke-linecap: square"/>
   </g>
   <g id="line2d_63">
    <path d="M 215.516514 248.9184 
L 94.525145 179.064 
" clip-path="url(#p732f3897c9)" style="fill: none; stroke: #6c6f73; stroke-opacity: 0.9; stroke-width: 0.8; stroke-linecap: square"/>
   </g>
   <g id="line2d_64">
    <path d="M 213.96574 252.6623 
L 79.017402 216.503002 
" clip-path="url(#p732f3897c9)" style="fill: none; stroke: #6c6f73; stroke-opacity: 0.9; stroke-width: 0.8; stroke-linecap: square"/>
   </g>
   <g id="line2d_65">
    <path d="M 213.4368 256.68 
L 73.728 256.68 
" clip-path="url(#p732f3897c9)" style="fill: none; stroke: #6c6f73; stroke-opacity: 0.9; stroke-width: 0.8; stroke-linecap: square"/>
   </g>
   <g id="line2d_66">
    <path d="M 213.96574 260.6977 
L 79.017402 296.856998 
" clip-path="url(#p732f3897c9)" style="fill: none; stroke: #6c6f73; stroke-opacity: 0.9; stroke-width: 0.8; stroke-linecap: square"/>
   </g>
   <g id="line2d_67">
    <path d="M 215.516514 264.4416 
L 94.525145 334.296 
" clip-path="url(#p732f3897c9)" style="fill: none; stroke: #6c6f73; stroke-opacity: 0.9; stroke-width: 0.8; stroke-linecap: square"/>
   </g>
   <g id="line2d_68">
    <path d="M 217.98344 267.65656 
L 119.1944 366.4456 
" clip-path="url(#p732f3897c9)" style="fill: none; stroke: #6c6f73; stroke-opacity: 0.9; stroke-width: 0.8; stroke-linecap: square"/>
   </g>
   <g id="line2d_69">
    <path d="M 221.1984 270.123486 
L 151.344 391.114855 
" clip-path="url(#p732f3897c9)" style="fill: none; stroke: #6c6f73; stroke-opacity: 0.9; stroke-width: 0.8; stroke-linecap: square"/>
   </g>
   <g id="line2d_70">
    <path d="M 224.9423 271.67426 
L 188.783002 406.622598 
" clip-path="url(#p732f3897c9)" style="fill: none; stroke: #6c6f73; stroke-opacity: 0.9; stroke-width: 0.8; stroke-linecap: square"/>
   </g>
   <g id="line2d_71">
    <path d="M 228.96 272.2032 
L 228.96 411.912 
" clip-path="url(#p732f3897c9)" style="fill: none; stroke: #6c6f73; stroke-opacity: 0.9; stroke-width: 0.8; stroke-linecap: square"/>
   </g>
   <g id="line2d_72">
    <path d="M 232.9777 271.67426 
L 269.136998 406.622598 
" clip-path="url(#p732f3897c9)" style="fill: none; stroke: #6c6f73; stroke-opacity: 0.9; stroke-width: 0.8; stroke-linecap: square"/>
   </g>
   <g id="line2d_73">
    <path d="M 236.7216 270.123486 
L 306.576 391.114855 
" clip-path="url(#p732f3897c9)" style="fill: none; stroke: #6c6f73; stroke-opacity: 0.9; stroke-width: 0.8; stroke-linecap: square"/>
   </g>
   <g id="line2d_74">
    <path d="M 239.93656 267.65656 
L 338.7256 366.4456 
" clip-path="url(#p732f3897c9)" style="fill: none; stroke: #6c6f73; stroke-opacity: 0.9; stroke-width: 0.8; stroke-linecap: square"/>
   </g>
   <g id="line2d_75">
    <path d="M 242.403486 264.4416 
L 363.394855 334.296 
" clip-path="url(#p732f3897c9)" style="fill: none; stroke: #6c6f73; stroke-opacity: 0.9; stroke-width: 0.8; stroke-linecap: square"/>
   </g>
   <g id="line2d_76">
    <path d="M 243.95426 260.6977 
L 378.902598 296.856998 
" clip-path="url(#p732f3897c9)" style="fill: none; stroke: #6c6f73; stroke-opacity: 0.9; stroke-width: 0.8; stroke-linecap: square"/>
   </g>
   <g id="line2d_77">
    <path d="M 688.0032 256.68 
L 827.712 256.68 
" clip-path="url(#p732f3897c9)" style="fill: none; stroke: #5b2ca0; stroke-opacity: 0.9; stroke-width: 0.8; stroke-linecap: square"/>
   </g>
   <g id="line2d_78">
    <path d="M 687.47426 252.6623 
L 822.422598 216.503002 
" clip-path="url(#p732f3897c9)" style="fill: none; stroke: #5b2ca0; stroke-opacity: 0.9; stroke-width: 0.8; stroke-linecap: square"/>
   </g>
   <g id="line2d_79">
    <path d="M 685.923486 248.9184 
L 806.914855 179.064 
" clip-path="url(#p732f3897c9)" style="fill: none; stroke: #5b2ca0; stroke-opacity: 0.9; stroke-width: 0.8; stroke-linecap: square"/>
   </g>
   <g id="line2d_80">
    <path d="M 683.45656 245.70344 
L 782.2456 146.9144 
" clip-path="url(#p732f3897c9)" style="fill: none; stroke: #5b2ca0; stroke-opacity: 0.9; stroke-width: 0.8; stroke-linecap: square"/>
   </g>
   <g id="line2d_81">
    <path d="M 680.2416 243.236514 
L 750.096 122.245145 
" clip-path="url(#p732f3897c9)" style="fill: none; stroke: #5b2ca0; stroke-opacity: 0.9; stroke-width: 0.8; stroke-linecap: square"/>
   </g>
   <g id="line2d_82">
    <path d="M 676.4977 241.68574 
L 712.656998 106.737402 
" clip-path="url(#p732f3897c9)" style="fill: none; stroke: #5b2ca0; stroke-opacity: 0.9; stroke-width: 0.8; stroke-linecap: square"/>
   </g>
   <g id="line2d_83">
    <path d="M 672.48 241.1568 
L 672.48 101.448 
" clip-path="url(#p732f3897c9)" style="fill: none; stroke: #5b2ca0; stroke-opacity: 0.9; stroke-width: 0.8; stroke-linecap: square"/>
   </g>
   <g id="line2d_84">
    <path d="M 668.4623 241.68574 
L 632.303002 106.737402 
" clip-path="url(#p732f3897c9)" style="fill: none; stroke: #5b2ca0; stroke-opacity: 0.9; stroke-width: 0.8; stroke-linecap: square"/>
   </g>
   <g id="line2d_85">
    <path d="M 664.7184 243.236514 
L 594.864 122.245145 
" clip-path="url(#p732f3897c9)" style="fill: none; stroke: #5b2ca0; stroke-opacity: 0.9; stroke-width: 0.8; stroke-linecap: square"/>
   </g>
   <g id="line2d_86">
    <path d="M 661.50344 245.70344 
L 562.7144 146.9144 
" clip-path="url(#p732f3897c9)" style="fill: none; stroke: #5b2ca0; stroke-opacity: 0.9; stroke-width: 0.8; stroke-linecap: square"/>
   </g>
   <g id="line2d_87">
    <path d="M 659.036514 248.9184 
L 538.045145 179.064 
" clip-path="url(#p732f3897c9)" style="fill: none; stroke: #5b2ca0; stroke-opacity: 0.9; stroke-width: 0.8; stroke-linecap: square"/>
   </g>
   <g id="line2d_88">
    <path d="M 657.48574 252.6623 
L 522.537402 216.503002 
" clip-path="url(#p732f3897c9)" style="fill: none; stroke: #5b2ca0; stroke-opacity: 0.9; stroke-width: 0.8; stroke-linecap: square"/>
   </g>
   <g id="line2d_89">
    <path d="M 656.9568 256.68 
L 517.248 256.68 
" clip-path="url(#p732f3897c9)" style="fill: none; stroke: #5b2ca0; stroke-opacity: 0.9; stroke-width: 0.8; stroke-linecap: square"/>
   </g>
   <g id="line2d_90">
    <path d="M 657.48574 260.6977 
L 522.537402 296.856998 
" clip-path="url(#p732f3897c9)" style="fill: none; stroke: #5b2ca0; stroke-opacity: 0.9; stroke-width: 0.8; stroke-linecap: square"/>
   </g>
   <g id="line2d_91">
    <path d="M 659.036514 264.4416 
L 538.045145 334.296 
" clip-path="url(#p732f3897c9)" style="fill: none; stroke: #5b2ca0; stroke-opacity: 0.9; stroke-width: 0.8; stroke-linecap: square"/>
   </g>
   <g id="line2d_92">
    <path d="M 661.50344 267.65656 
L 562.7144 366.4456 
" clip-path="url(#p732f3897c9)" style="fill: none; stroke: #5b2ca0; stroke-opacity: 0.9; stroke-width: 0.8; stroke-linecap: square"/>
   </g>
   <g id="line2d_93">
    <path d="M 664.7184 270.123486 
L 594.864 391.114855 
" clip-path="url(#p732f3897c9)" style="fill: none; stroke: #5b2ca0; stroke-opacity: 0.9; stroke-width: 0.8; stroke-linecap: square"/>
   </g>
   <g id="line2d_94">
    <path d="M 668.4623 271.67426 
L 632.303002 406.622598 
" clip-path="url(#p732f3897c9)" style="fill: none; stroke: #5b2ca0; stroke-opacity: 0.9; stroke-width: 0.8; stroke-linecap: square"/>
   </g>
   <g id="line2d_95">
    <path d="M 672.48 272.2032 
L 672.48 411.912 
" clip-path="url(#p732f3897c9)" style="fill: none; stroke: #5b2ca0; stroke-opacity: 0.9; stroke-width: 0.8; stroke-linecap: square"/>
   </g>
   <g id="line2d_96">
    <path d="M 676.4977 271.67426 
L 712.656998 406.622598 
" clip-path="url(#p732f3897c9)" style="fill: none; stroke: #5b2ca0; stroke-opacity: 0.9; stroke-width: 0.8; stroke-linecap: square"/>
   </g>
   <g id="line2d_97">
    <path d="M 680.2416 270.123486 
L 750.096 391.114855 
" clip-path="url(#p732f3897c9)" style="fill: none; stroke: #5b2ca0; stroke-opacity: 0.9; stroke-width: 0.8; stroke-linecap: square"/>
   </g>
   <g id="line2d_98">
    <path d="M 683.45656 267.65656 
L 782.2456 366.4456 
" clip-path="url(#p732f3897c9)" style="fill: none; stroke: #5b2ca0; stroke-opacity: 0.9; stroke-width: 0.8; stroke-linecap: square"/>
   </g>
   <g id="line2d_99">
    <path d="M 685.923486 264.4416 
L 806.914855 334.296 
" clip-path="url(#p732f3897c9)" style="fill: none; stroke: #5b2ca0; stroke-opacity: 0.9; stroke-width: 0.8; stroke-linecap: square"/>
   </g>
   <g id="line2d_100">
    <path d="M 687.47426 260.6977 
L 822.422598 296.856998 
" clip-path="url(#p732f3897c9)" style="fill: none; stroke: #5b2ca0; stroke-opacity: 0.9; stroke-width: 0.8; stroke-linecap: square"/>
   </g>
   <g id="text_1">
    <!-- Default State  ⟷  Sovereign State -->
    <g style="fill: #3a3d40" transform="translate(237.199687 29.376) scale(0.22 -0.22)">
     <defs>
      <path id="DejaVuSans-Bold-44" d="M 1791 3756 
L 1791 909 
L 2222 909 
Q 2959 909 3348 1275 
Q 3738 1641 3738 2338 
Q 3738 3031 3350 3393 
Q 2963 3756 2222 3756 
L 1791 3756 
z
M 588 4666 
L 1856 4666 
Q 2919 4666 3439 4514 
Q 3959 4363 4331 4000 
Q 4659 3684 4818 3271 
Q 4978 2859 4978 2338 
Q 4978 1809 4818 1395 
Q 4659 981 4331 666 
Q 3956 303 3431 151 
Q 2906 0 1856 0 
L 588 0 
L 588 4666 
z
" transform="scale(0.015625)"/>
      <path id="DejaVuSans-Bold-65" d="M 4031 1759 
L 4031 1441 
L 1416 1441 
Q 1456 1047 1700 850 
Q 1944 653 2381 653 
Q 2734 653 3104 758 
Q 3475 863 3866 1075 
L 3866 213 
Q 3469 63 3072 -14 
Q 2675 -91 2278 -91 
Q 1328 -91 801 392 
Q 275 875 275 1747 
Q 275 2603 792 3093 
Q 1309 3584 2216 3584 
Q 3041 3584 3536 3087 
Q 4031 2591 4031 1759 
z
M 2881 2131 
Q 2881 2450 2695 2645 
Q 2509 2841 2209 2841 
Q 1884 2841 1681 2658 
Q 1478 2475 1428 2131 
L 2881 2131 
z
" transform="scale(0.015625)"/>
      <path id="DejaVuSans-Bold-66" d="M 2841 4863 
L 2841 4128 
L 2222 4128 
Q 1984 4128 1890 4042 
Q 1797 3956 1797 3744 
L 1797 3500 
L 2753 3500 
L 2753 2700 
L 1797 2700 
L 1797 0 
L 678 0 
L 678 2700 
L 122 2700 
L 122 3500 
L 678 3500 
L 678 3744 
Q 678 4316 997 4589 
Q 1316 4863 1984 4863 
L 2841 4863 
z
" transform="scale(0.015625)"/>
      <path id="DejaVuSans-Bold-61" d="M 2106 1575 
Q 1756 1575 1579 1456 
Q 1403 1338 1403 1106 
Q 1403 894 1545 773 
Q 1688 653 1941 653 
Q 2256 653 2472 879 
Q 2688 1106 2688 1447 
L 2688 1575 
L 2106 1575 
z
M 3816 1997 
L 3816 0 
L 2688 0 
L 2688 519 
Q 2463 200 2181 54 
Q 1900 -91 1497 -91 
Q 953 -91 614 226 
Q 275 544 275 1050 
Q 275 1666 698 1953 
Q 1122 2241 2028 2241 
L 2688 2241 
L 2688 2328 
Q 2688 2594 2478 2717 
Q 2269 2841 1825 2841 
Q 1466 2841 1156 2769 
Q 847 2697 581 2553 
L 581 3406 
Q 941 3494 1303 3539 
Q 1666 3584 2028 3584 
Q 2975 3584 3395 3211 
Q 3816 2838 3816 1997 
z
" transform="scale(0.015625)"/>
      <path id="DejaVuSans-Bold-75" d="M 500 1363 
L 500 3500 
L 1625 3500 
L 1625 3150 
Q 1625 2866 1622 2436 
Q 1619 2006 1619 1863 
Q 1619 1441 1641 1255 
Q 1663 1069 1716 984 
Q 1784 875 1895 815 
Q 2006 756 2150 756 
Q 2500 756 2700 1025 
Q 2900 1294 2900 1772 
L 2900 3500 
L 4019 3500 
L 4019 0 
L 2900 0 
L 2900 506 
Q 2647 200 2364 54 
Q 2081 -91 1741 -91 
Q 1134 -91 817 281 
Q 500 653 500 1363 
z
" transform="scale(0.015625)"/>
      <path id="DejaVuSans-Bold-6c" d="M 538 4863 
L 1656 4863 
L 1656 0 
L 538 0 
L 538 4863 
z
" transform="scale(0.015625)"/>
      <path id="DejaVuSans-Bold-74" d="M 1759 4494 
L 1759 3500 
L 2913 3500 
L 2913 2700 
L 1759 2700 
L 1759 1216 
Q 1759 972 1856 886 
Q 1953 800 2241 800 
L 2816 800 
L 2816 0 
L 1856 0 
Q 1194 0 917 276 
Q 641 553 641 1216 
L 641 2700 
L 84 2700 
L 84 3500 
L 641 3500 
L 641 4494 
L 1759 4494 
z
" transform="scale(0.015625)"/>
      <path id="DejaVuSans-Bold-20" transform="scale(0.015625)"/>
      <path id="DejaVuSans-Bold-53" d="M 3834 4519 
L 3834 3531 
Q 3450 3703 3084 3790 
Q 2719 3878 2394 3878 
Q 1963 3878 1756 3759 
Q 1550 3641 1550 3391 
Q 1550 3203 1689 3098 
Q 1828 2994 2194 2919 
L 2706 2816 
Q 3484 2659 3812 2340 
Q 4141 2022 4141 1434 
Q 4141 663 3683 286 
Q 3225 -91 2284 -91 
Q 1841 -91 1394 -6 
Q 947 78 500 244 
L 500 1259 
Q 947 1022 1364 901 
Q 1781 781 2169 781 
Q 2563 781 2772 912 
Q 2981 1044 2981 1288 
Q 2981 1506 2839 1625 
Q 2697 1744 2272 1838 
L 1806 1941 
Q 1106 2091 782 2419 
Q 459 2747 459 3303 
Q 459 4000 909 4375 
Q 1359 4750 2203 4750 
Q 2588 4750 2994 4692 
Q 3400 4634 3834 4519 
z
" transform="scale(0.015625)"/>
      <path id="DejaVuSans-Bold-27f7" d="M 313 1788 
L 313 2225 
L 1541 3453 
L 1994 3000 
L 1375 2381 
L 7800 2381 
L 7181 3000 
L 7634 3453 
L 8863 2225 
L 8863 1788 
L 7634 559 
L 7181 1013 
L 7800 1631 
L 1375 1631 
L 1994 1013 
L 1541 559 
L 313 1788 
z
" transform="scale(0.015625)"/>
      <path id="DejaVuSans-Bold-6f" d="M 2203 2784 
Q 1831 2784 1636 2517 
Q 1441 2250 1441 1747 
Q 1441 1244 1636 976 
Q 1831 709 2203 709 
Q 2569 709 2762 976 
Q 2956 1244 2956 1747 
Q 2956 2250 2762 2517 
Q 2569 2784 2203 2784 
z
M 2203 3584 
Q 3106 3584 3614 3096 
Q 4122 2609 4122 1747 
Q 4122 884 3614 396 
Q 3106 -91 2203 -91 
Q 1297 -91 786 396 
Q 275 884 275 1747 
Q 275 2609 786 3096 
Q 1297 3584 2203 3584 
z
" transform="scale(0.015625)"/>
      <path id="DejaVuSans-Bold-76" d="M 97 3500 
L 1216 3500 
L 2088 1081 
L 2956 3500 
L 4078 3500 
L 2700 0 
L 1472 0 
L 97 3500 
z
" transform="scale(0.015625)"/>
      <path id="DejaVuSans-Bold-72" d="M 3138 2547 
Q 2991 2616 2845 2648 
Q 2700 2681 2553 2681 
Q 2122 2681 1889 2404 
Q 1656 2128 1656 1613 
L 1656 0 
L 538 0 
L 538 3500 
L 1656 3500 
L 1656 2925 
Q 1872 3269 2151 3426 
Q 2431 3584 2822 3584 
Q 2878 3584 2943 3579 
Q 3009 3575 3134 3559 
L 3138 2547 
z
" transform="scale(0.015625)"/>
      <path id="DejaVuSans-Bold-69" d="M 538 3500 
L 1656 3500 
L 1656 0 
L 538 0 
L 538 3500 
z
M 538 4863 
L 1656 4863 
L 1656 3950 
L 538 3950 
L 538 4863 
z
" transform="scale(0.015625)"/>
      <path id="DejaVuSans-Bold-67" d="M 2919 594 
Q 2688 288 2409 144 
Q 2131 0 1766 0 
Q 1125 0 706 504 
Q 288 1009 288 1791 
Q 288 2575 706 3076 
Q 1125 3578 1766 3578 
Q 2131 3578 2409 3434 
Q 2688 3291 2919 2981 
L 2919 3500 
L 4044 3500 
L 4044 353 
Q 4044 -491 3511 -936 
Q 2978 -1381 1966 -1381 
Q 1638 -1381 1331 -1331 
Q 1025 -1281 716 -1178 
L 716 -306 
Q 1009 -475 1290 -558 
Q 1572 -641 1856 -641 
Q 2406 -641 2662 -400 
Q 2919 -159 2919 353 
L 2919 594 
z
M 2181 2772 
Q 1834 2772 1640 2515 
Q 1447 2259 1447 1791 
Q 1447 1309 1634 1061 
Q 1822 813 2181 813 
Q 2531 813 2725 1069 
Q 2919 1325 2919 1791 
Q 2919 2259 2725 2515 
Q 2531 2772 2181 2772 
z
" transform="scale(0.015625)"/>
      <path id="DejaVuSans-Bold-6e" d="M 4056 2131 
L 4056 0 
L 2931 0 
L 2931 347 
L 2931 1631 
Q 2931 2084 2911 2256 
Q 2891 2428 2841 2509 
Q 2775 2619 2662 2680 
Q 2550 2741 2406 2741 
Q 2056 2741 1856 2470 
Q 1656 2200 1656 1722 
L 1656 0 
L 538 0 
L 538 3500 
L 1656 3500 
L 1656 2988 
Q 1909 3294 2193 3439 
Q 2478 3584 2822 3584 
Q 3428 3584 3742 3212 
Q 4056 2841 4056 2131 
z
" transform="scale(0.015625)"/>
     </defs>
     <use xlink:href="#DejaVuSans-Bold-44"/>
     <use xlink:href="#DejaVuSans-Bold-65" x="83.007812"/>
     <use xlink:href="#DejaVuSans-Bold-66" x="150.830078"/>
     <use xlink:href="#DejaVuSans-Bold-61" x="194.335938"/>
     <use xlink:href="#DejaVuSans-Bold-75" x="261.816406"/>
     <use xlink:href="#DejaVuSans-Bold-6c" x="333.007812"/>
     <use xlink:href="#DejaVuSans-Bold-74" x="367.285156"/>
     <use xlink:href="#DejaVuSans-Bold-20" x="415.087891"/>
     <use xlink:href="#DejaVuSans-Bold-53" x="449.902344"/>
     <use xlink:href="#DejaVuSans-Bold-74" x="521.923828"/>
     <use xlink:href="#DejaVuSans-Bold-61" x="569.726562"/>
     <use xlink:href="#DejaVuSans-Bold-74" x="637.207031"/>
     <use xlink:href="#DejaVuSans-Bold-65" x="685.009766"/>
     <use xlink:href="#DejaVuSans-Bold-20" x="752.832031"/>
     <use xlink:href="#DejaVuSans-Bold-20" x="787.646484"/>
     <use xlink:href="#DejaVuSans-Bold-27f7" x="822.460938"/>
     <use xlink:href="#DejaVuSans-Bold-20" x="965.820312"/>
     <use xlink:href="#DejaVuSans-Bold-20" x="1000.634766"/>
     <use xlink:href="#DejaVuSans-Bold-53" x="1035.449219"/>
     <use xlink:href="#DejaVuSans-Bold-6f" x="1107.470703"/>
     <use xlink:href="#DejaVuSans-Bold-76" x="1176.171875"/>
     <use xlink:href="#DejaVuSans-Bold-65" x="1241.357422"/>
     <use xlink:href="#DejaVuSans-Bold-72" x="1309.179688"/>
     <use xlink:href="#DejaVuSans-Bold-65" x="1358.496094"/>
     <use xlink:href="#DejaVuSans-Bold-69" x="1426.318359"/>
     <use xlink:href="#DejaVuSans-Bold-67" x="1460.595703"/>
     <use xlink:href="#DejaVuSans-Bold-6e" x="1532.177734"/>
     <use xlink:href="#DejaVuSans-Bold-20" x="1603.369141"/>
     <use xlink:href="#DejaVuSans-Bold-53" x="1638.183594"/>
     <use xlink:href="#DejaVuSans-Bold-74" x="1710.205078"/>
     <use xlink:href="#DejaVuSans-Bold-61" x="1758.007812"/>
     <use xlink:href="#DejaVuSans-Bold-74" x="1825.488281"/>
     <use xlink:href="#DejaVuSans-Bold-65" x="1873.291016"/>
    </g>
   </g>
   <g id="text_2">
    <!-- Seal of Solomon as Convergence • Cause → Effect flows -->
    <g style="fill: #3a3d40" transform="translate(282.533437 57.096) scale(0.12 -0.12)">
     <defs>
      <path id="DejaVuSans-53" d="M 3425 4513 
L 3425 3897 
Q 3066 4069 2747 4153 
Q 2428 4238 2131 4238 
Q 1616 4238 1336 4038 
Q 1056 3838 1056 3469 
Q 1056 3159 1242 3001 
Q 1428 2844 1947 2747 
L 2328 2669 
Q 3034 2534 3370 2195 
Q 3706 1856 3706 1288 
Q 3706 609 3251 259 
Q 2797 -91 1919 -91 
Q 1588 -91 1214 -16 
Q 841 59 441 206 
L 441 856 
Q 825 641 1194 531 
Q 1563 422 1919 422 
Q 2459 422 2753 634 
Q 3047 847 3047 1241 
Q 3047 1584 2836 1778 
Q 2625 1972 2144 2069 
L 1759 2144 
Q 1053 2284 737 2584 
Q 422 2884 422 3419 
Q 422 4038 858 4394 
Q 1294 4750 2059 4750 
Q 2388 4750 2728 4690 
Q 3069 4631 3425 4513 
z
" transform="scale(0.015625)"/>
      <path id="DejaVuSans-65" d="M 3597 1894 
L 3597 1613 
L 953 1613 
Q 991 1019 1311 708 
Q 1631 397 2203 397 
Q 2534 397 2845 478 
Q 3156 559 3463 722 
L 3463 178 
Q 3153 47 2828 -22 
Q 2503 -91 2169 -91 
Q 1331 -91 842 396 
Q 353 884 353 1716 
Q 353 2575 817 3079 
Q 1281 3584 2069 3584 
Q 2775 3584 3186 3129 
Q 3597 2675 3597 1894 
z
M 3022 2063 
Q 3016 2534 2758 2815 
Q 2500 3097 2075 3097 
Q 1594 3097 1305 2825 
Q 1016 2553 972 2059 
L 3022 2063 
z
" transform="scale(0.015625)"/>
      <path id="DejaVuSans-61" d="M 2194 1759 
Q 1497 1759 1228 1600 
Q 959 1441 959 1056 
Q 959 750 1161 570 
Q 1363 391 1709 391 
Q 2188 391 2477 730 
Q 2766 1069 2766 1631 
L 2766 1759 
L 2194 1759 
z
M 3341 1997 
L 3341 0 
L 2766 0 
L 2766 531 
Q 2569 213 2275 61 
Q 1981 -91 1556 -91 
Q 1019 -91 701 211 
Q 384 513 384 1019 
Q 384 1609 779 1909 
Q 1175 2209 1959 2209 
L 2766 2209 
L 2766 2266 
Q 2766 2663 2505 2880 
Q 2244 3097 1772 3097 
Q 1472 3097 1187 3025 
Q 903 2953 641 2809 
L 641 3341 
Q 956 3463 1253 3523 
Q 1550 3584 1831 3584 
Q 2591 3584 2966 3190 
Q 3341 2797 3341 1997 
z
" transform="scale(0.015625)"/>
      <path id="DejaVuSans-6c" d="M 603 4863 
L 1178 4863 
L 1178 0 
L 603 0 
L 603 4863 
z
" transform="scale(0.015625)"/>
      <path id="DejaVuSans-20" transform="scale(0.015625)"/>
      <path id="DejaVuSans-6f" d="M 1959 3097 
Q 1497 3097 1228 2736 
Q 959 2375 959 1747 
Q 959 1119 1226 758 
Q 1494 397 1959 397 
Q 2419 397 2687 759 
Q 2956 1122 2956 1747 
Q 2956 2369 2687 2733 
Q 2419 3097 1959 3097 
z
M 1959 3584 
Q 2709 3584 3137 3096 
Q 3566 2609 3566 1747 
Q 3566 888 3137 398 
Q 2709 -91 1959 -91 
Q 1206 -91 779 398 
Q 353 888 353 1747 
Q 353 2609 779 3096 
Q 1206 3584 1959 3584 
z
" transform="scale(0.015625)"/>
      <path id="DejaVuSans-66" d="M 2375 4863 
L 2375 4384 
L 1825 4384 
Q 1516 4384 1395 4259 
Q 1275 4134 1275 3809 
L 1275 3500 
L 2222 3500 
L 2222 3053 
L 1275 3053 
L 1275 0 
L 697 0 
L 697 3053 
L 147 3053 
L 147 3500 
L 697 3500 
L 697 3744 
Q 697 4328 969 4595 
Q 1241 4863 1831 4863 
L 2375 4863 
z
" transform="scale(0.015625)"/>
      <path id="DejaVuSans-6d" d="M 3328 2828 
Q 3544 3216 3844 3400 
Q 4144 3584 4550 3584 
Q 5097 3584 5394 3201 
Q 5691 2819 5691 2113 
L 5691 0 
L 5113 0 
L 5113 2094 
Q 5113 2597 4934 2840 
Q 4756 3084 4391 3084 
Q 3944 3084 3684 2787 
Q 3425 2491 3425 1978 
L 3425 0 
L 2847 0 
L 2847 2094 
Q 2847 2600 2669 2842 
Q 2491 3084 2119 3084 
Q 1678 3084 1418 2786 
Q 1159 2488 1159 1978 
L 1159 0 
L 581 0 
L 581 3500 
L 1159 3500 
L 1159 2956 
Q 1356 3278 1631 3431 
Q 1906 3584 2284 3584 
Q 2666 3584 2933 3390 
Q 3200 3197 3328 2828 
z
" transform="scale(0.015625)"/>
      <path id="DejaVuSans-6e" d="M 3513 2113 
L 3513 0 
L 2938 0 
L 2938 2094 
Q 2938 2591 2744 2837 
Q 2550 3084 2163 3084 
Q 1697 3084 1428 2787 
Q 1159 2491 1159 1978 
L 1159 0 
L 581 0 
L 581 3500 
L 1159 3500 
L 1159 2956 
Q 1366 3272 1645 3428 
Q 1925 3584 2291 3584 
Q 2894 3584 3203 3211 
Q 3513 2838 3513 2113 
z
" transform="scale(0.015625)"/>
      <path id="DejaVuSans-73" d="M 2834 3397 
L 2834 2853 
Q 2591 2978 2328 3040 
Q 2066 3103 1784 3103 
Q 1356 3103 1142 2972 
Q 928 2841 928 2578 
Q 928 2378 1081 2264 
Q 1234 2150 1697 2047 
L 1894 2003 
Q 2506 1872 2764 1633 
Q 3022 1394 3022 966 
Q 3022 478 2636 193 
Q 2250 -91 1575 -91 
Q 1294 -91 989 -36 
Q 684 19 347 128 
L 347 722 
Q 666 556 975 473 
Q 1284 391 1588 391 
Q 1994 391 2212 530 
Q 2431 669 2431 922 
Q 2431 1156 2273 1281 
Q 2116 1406 1581 1522 
L 1381 1569 
Q 847 1681 609 1914 
Q 372 2147 372 2553 
Q 372 3047 722 3315 
Q 1072 3584 1716 3584 
Q 2034 3584 2315 3537 
Q 2597 3491 2834 3397 
z
" transform="scale(0.015625)"/>
      <path id="DejaVuSans-43" d="M 4122 4306 
L 4122 3641 
Q 3803 3938 3442 4084 
Q 3081 4231 2675 4231 
Q 1875 4231 1450 3742 
Q 1025 3253 1025 2328 
Q 1025 1406 1450 917 
Q 1875 428 2675 428 
Q 3081 428 3442 575 
Q 3803 722 4122 1019 
L 4122 359 
Q 3791 134 3420 21 
Q 3050 -91 2638 -91 
Q 1578 -91 968 557 
Q 359 1206 359 2328 
Q 359 3453 968 4101 
Q 1578 4750 2638 4750 
Q 3056 4750 3426 4639 
Q 3797 4528 4122 4306 
z
" transform="scale(0.015625)"/>
      <path id="DejaVuSans-76" d="M 191 3500 
L 800 3500 
L 1894 563 
L 2988 3500 
L 3597 3500 
L 2284 0 
L 1503 0 
L 191 3500 
z
" transform="scale(0.015625)"/>
      <path id="DejaVuSans-72" d="M 2631 2963 
Q 2534 3019 2420 3045 
Q 2306 3072 2169 3072 
Q 1681 3072 1420 2755 
Q 1159 2438 1159 1844 
L 1159 0 
L 581 0 
L 581 3500 
L 1159 3500 
L 1159 2956 
Q 1341 3275 1631 3429 
Q 1922 3584 2338 3584 
Q 2397 3584 2469 3576 
Q 2541 3569 2628 3553 
L 2631 2963 
z
" transform="scale(0.015625)"/>
      <path id="DejaVuSans-67" d="M 2906 1791 
Q 2906 2416 2648 2759 
Q 2391 3103 1925 3103 
Q 1463 3103 1205 2759 
Q 947 2416 947 1791 
Q 947 1169 1205 825 
Q 1463 481 1925 481 
Q 2391 481 2648 825 
Q 2906 1169 2906 1791 
z
M 3481 434 
Q 3481 -459 3084 -895 
Q 2688 -1331 1869 -1331 
Q 1566 -1331 1297 -1286 
Q 1028 -1241 775 -1147 
L 775 -588 
Q 1028 -725 1275 -790 
Q 1522 -856 1778 -856 
Q 2344 -856 2625 -561 
Q 2906 -266 2906 331 
L 2906 616 
Q 2728 306 2450 153 
Q 2172 0 1784 0 
Q 1141 0 747 490 
Q 353 981 353 1791 
Q 353 2603 747 3093 
Q 1141 3584 1784 3584 
Q 2172 3584 2450 3431 
Q 2728 3278 2906 2969 
L 2906 3500 
L 3481 3500 
L 3481 434 
z
" transform="scale(0.015625)"/>
      <path id="DejaVuSans-63" d="M 3122 3366 
L 3122 2828 
Q 2878 2963 2633 3030 
Q 2388 3097 2138 3097 
Q 1578 3097 1268 2742 
Q 959 2388 959 1747 
Q 959 1106 1268 751 
Q 1578 397 2138 397 
Q 2388 397 2633 464 
Q 2878 531 3122 666 
L 3122 134 
Q 2881 22 2623 -34 
Q 2366 -91 2075 -91 
Q 1284 -91 818 406 
Q 353 903 353 1747 
Q 353 2603 823 3093 
Q 1294 3584 2113 3584 
Q 2378 3584 2631 3529 
Q 2884 3475 3122 3366 
z
" transform="scale(0.015625)"/>
      <path id="DejaVuSans-2022" d="M 959 2381 
Q 959 2769 1229 3036 
Q 1500 3303 1894 3303 
Q 2281 3303 2548 3036 
Q 2816 2769 2816 2381 
Q 2816 1991 2547 1722 
Q 2278 1453 1888 1453 
Q 1497 1453 1228 1722 
Q 959 1991 959 2381 
z
" transform="scale(0.015625)"/>
      <path id="DejaVuSans-75" d="M 544 1381 
L 544 3500 
L 1119 3500 
L 1119 1403 
Q 1119 906 1312 657 
Q 1506 409 1894 409 
Q 2359 409 2629 706 
Q 2900 1003 2900 1516 
L 2900 3500 
L 3475 3500 
L 3475 0 
L 2900 0 
L 2900 538 
Q 2691 219 2414 64 
Q 2138 -91 1772 -91 
Q 1169 -91 856 284 
Q 544 659 544 1381 
z
M 1991 3584 
L 1991 3584 
z
" transform="scale(0.015625)"/>
      <path id="DejaVuSans-2192" d="M 5050 2147 
L 5050 1866 
L 3822 638 
L 3447 1013 
L 4175 1741 
L 366 1741 
L 366 2272 
L 4175 2272 
L 3447 3000 
L 3822 3375 
L 5050 2147 
z
" transform="scale(0.015625)"/>
      <path id="DejaVuSans-45" d="M 628 4666 
L 3578 4666 
L 3578 4134 
L 1259 4134 
L 1259 2753 
L 3481 2753 
L 3481 2222 
L 1259 2222 
L 1259 531 
L 3634 531 
L 3634 0 
L 628 0 
L 628 4666 
z
" transform="scale(0.015625)"/>
      <path id="DejaVuSans-74" d="M 1172 4494 
L 1172 3500 
L 2356 3500 
L 2356 3053 
L 1172 3053 
L 1172 1153 
Q 1172 725 1289 603 
Q 1406 481 1766 481 
L 2356 481 
L 2356 0 
L 1766 0 
Q 1100 0 847 248 
Q 594 497 594 1153 
L 594 3053 
L 172 3053 
L 172 3500 
L 594 3500 
L 594 4494 
L 1172 4494 
z
" transform="scale(0.015625)"/>
      <path id="DejaVuSans-77" d="M 269 3500 
L 844 3500 
L 1563 769 
L 2278 3500 
L 2956 3500 
L 3675 769 
L 4391 3500 
L 4966 3500 
L 4050 0 
L 3372 0 
L 2619 2869 
L 1863 0 
L 1184 0 
L 269 3500 
z
" transform="scale(0.015625)"/>
     </defs>
     <use xlink:href="#DejaVuSans-53"/>
     <use xlink:href="#DejaVuSans-65" x="63.476562"/>
     <use xlink:href="#DejaVuSans-61" x="125"/>
     <use xlink:href="#DejaVuSans-6c" x="186.279297"/>
     <use xlink:href="#DejaVuSans-20" x="214.0625"/>
     <use xlink:href="#DejaVuSans-6f" x="245.849609"/>
     <use xlink:href="#DejaVuSans-66" x="307.03125"/>
     <use xlink:href="#DejaVuSans-20" x="342.236328"/>
     <use xlink:href="#DejaVuSans-53" x="374.023438"/>
     <use xlink:href="#DejaVuSans-6f" x="437.5"/>
     <use xlink:href="#DejaVuSans-6c" x="498.681641"/>
     <use xlink:href="#DejaVuSans-6f" x="526.464844"/>
     <use xlink:href="#DejaVuSans-6d" x="587.646484"/>
     <use xlink:href="#DejaVuSans-6f" x="685.058594"/>
     <use xlink:href="#DejaVuSans-6e" x="746.240234"/>
     <use xlink:href="#DejaVuSans-20" x="809.619141"/>
     <use xlink:href="#DejaVuSans-61" x="841.40625"/>
     <use xlink:href="#DejaVuSans-73" x="902.685547"/>
     <use xlink:href="#DejaVuSans-20" x="954.785156"/>
     <use xlink:href="#DejaVuSans-43" x="986.572266"/>
     <use xlink:href="#DejaVuSans-6f" x="1056.396484"/>
     <use xlink:href="#DejaVuSans-6e" x="1117.578125"/>
     <use xlink:href="#DejaVuSans-76" x="1180.957031"/>
     <use xlink:href="#DejaVuSans-65" x="1240.136719"/>
     <use xlink:href="#DejaVuSans-72" x="1301.660156"/>
     <use xlink:href="#DejaVuSans-67" x="1341.023438"/>
     <use xlink:href="#DejaVuSans-65" x="1404.5"/>
     <use xlink:href="#DejaVuSans-6e" x="1466.023438"/>
     <use xlink:href="#DejaVuSans-63" x="1529.402344"/>
     <use xlink:href="#DejaVuSans-65" x="1584.382812"/>
     <use xlink:href="#DejaVuSans-20" x="1645.90625"/>
     <use xlink:href="#DejaVuSans-2022" x="1677.693359"/>
     <use xlink:href="#DejaVuSans-20" x="1736.677734"/>
     <use xlink:href="#DejaVuSans-43" x="1768.464844"/>
     <use xlink:href="#DejaVuSans-61" x="1838.289062"/>
     <use xlink:href="#DejaVuSans-75" x="1899.568359"/>
     <use xlink:href="#DejaVuSans-73" x="1962.947266"/>
     <use xlink:href="#DejaVuSans-65" x="2015.046875"/>
     <use xlink:href="#DejaVuSans-20" x="2076.570312"/>
     <use xlink:href="#DejaVuSans-2192" x="2108.357422"/>
     <use xlink:href="#DejaVuSans-20" x="2192.146484"/>
     <use xlink:href="#DejaVuSans-45" x="2223.933594"/>
     <use xlink:href="#DejaVuSans-66" x="2287.117188"/>
     <use xlink:href="#DejaVuSans-66" x="2322.322266"/>
     <use xlink:href="#DejaVuSans-65" x="2357.527344"/>
     <use xlink:href="#DejaVuSans-63" x="2419.050781"/>
     <use xlink:href="#DejaVuSans-74" x="2474.03125"/>
     <use xlink:href="#DejaVuSans-20" x="2513.240234"/>
     <use xlink:href="#DejaVuSans-66" x="2545.027344"/>
     <use xlink:href="#DejaVuSans-6c" x="2580.232422"/>
     <use xlink:href="#DejaVuSans-6f" x="2608.015625"/>
     <use xlink:href="#DejaVuSans-77" x="2669.197266"/>
     <use xlink:href="#DejaVuSans-73" x="2750.984375"/>
    </g>
   </g>
   <g id="text_3">
    <!-- Default State -->
    <g style="fill: #6c6f73" transform="translate(161.205469 64.440563) scale(0.18 -0.18)">
     <use xlink:href="#DejaVuSans-Bold-44"/>
     <use xlink:href="#DejaVuSans-Bold-65" x="83.007812"/>
     <use xlink:href="#DejaVuSans-Bold-66" x="150.830078"/>
     <use xlink:href="#DejaVuSans-Bold-61" x="194.335938"/>
     <use xlink:href="#DejaVuSans-Bold-75" x="261.816406"/>
     <use xlink:href="#DejaVuSans-Bold-6c" x="333.007812"/>
     <use xlink:href="#DejaVuSans-Bold-74" x="367.285156"/>
     <use xlink:href="#DejaVuSans-Bold-20" x="415.087891"/>
     <use xlink:href="#DejaVuSans-Bold-53" x="449.902344"/>
     <use xlink:href="#DejaVuSans-Bold-74" x="521.923828"/>
     <use xlink:href="#DejaVuSans-Bold-61" x="569.726562"/>
     <use xlink:href="#DejaVuSans-Bold-74" x="637.207031"/>
     <use xlink:href="#DejaVuSans-Bold-65" x="685.009766"/>
    </g>
   </g>
   <g id="text_4">
    <!-- • Tool-based, linear sessions -->
    <g style="fill: #6c6f73" transform="translate(150.672656 431.358281) scale(0.11 -0.11)">
     <defs>
      <path id="DejaVuSans-54" d="M -19 4666 
L 3928 4666 
L 3928 4134 
L 2272 4134 
L 2272 0 
L 1638 0 
L 1638 4134 
L -19 4134 
L -19 4666 
z
" transform="scale(0.015625)"/>
      <path id="DejaVuSans-2d" d="M 313 2009 
L 1997 2009 
L 1997 1497 
L 313 1497 
L 313 2009 
z
" transform="scale(0.015625)"/>
      <path id="DejaVuSans-62" d="M 3116 1747 
Q 3116 2381 2855 2742 
Q 2594 3103 2138 3103 
Q 1681 3103 1420 2742 
Q 1159 2381 1159 1747 
Q 1159 1113 1420 752 
Q 1681 391 2138 391 
Q 2594 391 2855 752 
Q 3116 1113 3116 1747 
z
M 1159 2969 
Q 1341 3281 1617 3432 
Q 1894 3584 2278 3584 
Q 2916 3584 3314 3078 
Q 3713 2572 3713 1747 
Q 3713 922 3314 415 
Q 2916 -91 2278 -91 
Q 1894 -91 1617 61 
Q 1341 213 1159 525 
L 1159 0 
L 581 0 
L 581 4863 
L 1159 4863 
L 1159 2969 
z
" transform="scale(0.015625)"/>
      <path id="DejaVuSans-64" d="M 2906 2969 
L 2906 4863 
L 3481 4863 
L 3481 0 
L 2906 0 
L 2906 525 
Q 2725 213 2448 61 
Q 2172 -91 1784 -91 
Q 1150 -91 751 415 
Q 353 922 353 1747 
Q 353 2572 751 3078 
Q 1150 3584 1784 3584 
Q 2172 3584 2448 3432 
Q 2725 3281 2906 2969 
z
M 947 1747 
Q 947 1113 1208 752 
Q 1469 391 1925 391 
Q 2381 391 2643 752 
Q 2906 1113 2906 1747 
Q 2906 2381 2643 2742 
Q 2381 3103 1925 3103 
Q 1469 3103 1208 2742 
Q 947 2381 947 1747 
z
" transform="scale(0.015625)"/>
      <path id="DejaVuSans-2c" d="M 750 794 
L 1409 794 
L 1409 256 
L 897 -744 
L 494 -744 
L 750 256 
L 750 794 
z
" transform="scale(0.015625)"/>
      <path id="DejaVuSans-69" d="M 603 3500 
L 1178 3500 
L 1178 0 
L 603 0 
L 603 3500 
z
M 603 4863 
L 1178 4863 
L 1178 4134 
L 603 4134 
L 603 4863 
z
" transform="scale(0.015625)"/>
     </defs>
     <use xlink:href="#DejaVuSans-2022"/>
     <use xlink:href="#DejaVuSans-20" x="58.984375"/>
     <use xlink:href="#DejaVuSans-54" x="90.771484"/>
     <use xlink:href="#DejaVuSans-6f" x="134.855469"/>
     <use xlink:href="#DejaVuSans-6f" x="196.037109"/>
     <use xlink:href="#DejaVuSans-6c" x="257.21875"/>
     <use xlink:href="#DejaVuSans-2d" x="285.001953"/>
     <use xlink:href="#DejaVuSans-62" x="321.085938"/>
     <use xlink:href="#DejaVuSans-61" x="384.5625"/>
     <use xlink:href="#DejaVuSans-73" x="445.841797"/>
     <use xlink:href="#DejaVuSans-65" x="497.941406"/>
     <use xlink:href="#DejaVuSans-64" x="559.464844"/>
     <use xlink:href="#DejaVuSans-2c" x="622.941406"/>
     <use xlink:href="#DejaVuSans-20" x="654.728516"/>
     <use xlink:href="#DejaVuSans-6c" x="686.515625"/>
     <use xlink:href="#DejaVuSans-69" x="714.298828"/>
     <use xlink:href="#DejaVuSans-6e" x="742.082031"/>
     <use xlink:href="#DejaVuSans-65" x="805.460938"/>
     <use xlink:href="#DejaVuSans-61" x="866.984375"/>
     <use xlink:href="#DejaVuSans-72" x="928.263672"/>
     <use xlink:href="#DejaVuSans-20" x="969.376953"/>
     <use xlink:href="#DejaVuSans-73" x="1001.164062"/>
     <use xlink:href="#DejaVuSans-65" x="1053.263672"/>
     <use xlink:href="#DejaVuSans-73" x="1114.787109"/>
     <use xlink:href="#DejaVuSans-73" x="1166.886719"/>
     <use xlink:href="#DejaVuSans-69" x="1218.986328"/>
     <use xlink:href="#DejaVuSans-6f" x="1246.769531"/>
     <use xlink:href="#DejaVuSans-6e" x="1307.951172"/>
     <use xlink:href="#DejaVuSans-73" x="1371.330078"/>
    </g>
   </g>
   <g id="text_5">
    <!-- • Ephemeral memory; neutrality bias -->
    <g style="fill: #6c6f73" transform="translate(126.287031 459.078281) scale(0.11 -0.11)">
     <defs>
      <path id="DejaVuSans-70" d="M 1159 525 
L 1159 -1331 
L 581 -1331 
L 581 3500 
L 1159 3500 
L 1159 2969 
Q 1341 3281 1617 3432 
Q 1894 3584 2278 3584 
Q 2916 3584 3314 3078 
Q 3713 2572 3713 1747 
Q 3713 922 3314 415 
Q 2916 -91 2278 -91 
Q 1894 -91 1617 61 
Q 1341 213 1159 525 
z
M 3116 1747 
Q 3116 2381 2855 2742 
Q 2594 3103 2138 3103 
Q 1681 3103 1420 2742 
Q 1159 2381 1159 1747 
Q 1159 1113 1420 752 
Q 1681 391 2138 391 
Q 2594 391 2855 752 
Q 3116 1113 3116 1747 
z
" transform="scale(0.015625)"/>
      <path id="DejaVuSans-68" d="M 3513 2113 
L 3513 0 
L 2938 0 
L 2938 2094 
Q 2938 2591 2744 2837 
Q 2550 3084 2163 3084 
Q 1697 3084 1428 2787 
Q 1159 2491 1159 1978 
L 1159 0 
L 581 0 
L 581 4863 
L 1159 4863 
L 1159 2956 
Q 1366 3272 1645 3428 
Q 1925 3584 2291 3584 
Q 2894 3584 3203 3211 
Q 3513 2838 3513 2113 
z
" transform="scale(0.015625)"/>
      <path id="DejaVuSans-79" d="M 2059 -325 
Q 1816 -950 1584 -1140 
Q 1353 -1331 966 -1331 
L 506 -1331 
L 506 -850 
L 844 -850 
Q 1081 -850 1212 -737 
Q 1344 -625 1503 -206 
L 1606 56 
L 191 3500 
L 800 3500 
L 1894 763 
L 2988 3500 
L 3597 3500 
L 2059 -325 
z
" transform="scale(0.015625)"/>
      <path id="DejaVuSans-3b" d="M 750 3309 
L 1409 3309 
L 1409 2516 
L 750 2516 
L 750 3309 
z
M 750 794 
L 1409 794 
L 1409 256 
L 897 -744 
L 494 -744 
L 750 256 
L 750 794 
z
" transform="scale(0.015625)"/>
     </defs>
     <use xlink:href="#DejaVuSans-2022"/>
     <use xlink:href="#DejaVuSans-20" x="58.984375"/>
     <use xlink:href="#DejaVuSans-45" x="90.771484"/>
     <use xlink:href="#DejaVuSans-70" x="153.955078"/>
     <use xlink:href="#DejaVuSans-68" x="217.431641"/>
     <use xlink:href="#DejaVuSans-65" x="280.810547"/>
     <use xlink:href="#DejaVuSans-6d" x="342.333984"/>
     <use xlink:href="#DejaVuSans-65" x="439.746094"/>
     <use xlink:href="#DejaVuSans-72" x="501.269531"/>
     <use xlink:href="#DejaVuSans-61" x="542.382812"/>
     <use xlink:href="#DejaVuSans-6c" x="603.662109"/>
     <use xlink:href="#DejaVuSans-20" x="631.445312"/>
     <use xlink:href="#DejaVuSans-6d" x="663.232422"/>
     <use xlink:href="#DejaVuSans-65" x="760.644531"/>
     <use xlink:href="#DejaVuSans-6d" x="822.167969"/>
     <use xlink:href="#DejaVuSans-6f" x="919.580078"/>
     <use xlink:href="#DejaVuSans-72" x="980.761719"/>
     <use xlink:href="#DejaVuSans-79" x="1021.875"/>
     <use xlink:href="#DejaVuSans-3b" x="1081.054688"/>
     <use xlink:href="#DejaVuSans-20" x="1114.746094"/>
     <use xlink:href="#DejaVuSans-6e" x="1146.533203"/>
     <use xlink:href="#DejaVuSans-65" x="1209.912109"/>
     <use xlink:href="#DejaVuSans-75" x="1271.435547"/>
     <use xlink:href="#DejaVuSans-74" x="1334.814453"/>
     <use xlink:href="#DejaVuSans-72" x="1374.023438"/>
     <use xlink:href="#DejaVuSans-61" x="1415.136719"/>
     <use xlink:href="#DejaVuSans-6c" x="1476.416016"/>
     <use xlink:href="#DejaVuSans-69" x="1504.199219"/>
     <use xlink:href="#DejaVuSans-74" x="1531.982422"/>
     <use xlink:href="#DejaVuSans-79" x="1571.191406"/>
     <use xlink:href="#DejaVuSans-20" x="1630.371094"/>
     <use xlink:href="#DejaVuSans-62" x="1662.158203"/>
     <use xlink:href="#DejaVuSans-69" x="1725.634766"/>
     <use xlink:href="#DejaVuSans-61" x="1753.417969"/>
     <use xlink:href="#DejaVuSans-73" x="1814.697266"/>
    </g>
   </g>
   <g id="text_6">
    <!-- • Shallow outputs; low coherence -->
    <g style="fill: #6c6f73" transform="translate(136.5325 486.798281) scale(0.11 -0.11)">
     <use xlink:href="#DejaVuSans-2022"/>
     <use xlink:href="#DejaVuSans-20" x="58.984375"/>
     <use xlink:href="#DejaVuSans-53" x="90.771484"/>
     <use xlink:href="#DejaVuSans-68" x="154.248047"/>
     <use xlink:href="#DejaVuSans-61" x="217.626953"/>
     <use xlink:href="#DejaVuSans-6c" x="278.90625"/>
     <use xlink:href="#DejaVuSans-6c" x="306.689453"/>
     <use xlink:href="#DejaVuSans-6f" x="334.472656"/>
     <use xlink:href="#DejaVuSans-77" x="395.654297"/>
     <use xlink:href="#DejaVuSans-20" x="477.441406"/>
     <use xlink:href="#DejaVuSans-6f" x="509.228516"/>
     <use xlink:href="#DejaVuSans-75" x="570.410156"/>
     <use xlink:href="#DejaVuSans-74" x="633.789062"/>
     <use xlink:href="#DejaVuSans-70" x="672.998047"/>
     <use xlink:href="#DejaVuSans-75" x="736.474609"/>
     <use xlink:href="#DejaVuSans-74" x="799.853516"/>
     <use xlink:href="#DejaVuSans-73" x="839.0625"/>
     <use xlink:href="#DejaVuSans-3b" x="891.162109"/>
     <use xlink:href="#DejaVuSans-20" x="924.853516"/>
     <use xlink:href="#DejaVuSans-6c" x="956.640625"/>
     <use xlink:href="#DejaVuSans-6f" x="984.423828"/>
     <use xlink:href="#DejaVuSans-77" x="1045.605469"/>
     <use xlink:href="#DejaVuSans-20" x="1127.392578"/>
     <use xlink:href="#DejaVuSans-63" x="1159.179688"/>
     <use xlink:href="#DejaVuSans-6f" x="1214.160156"/>
     <use xlink:href="#DejaVuSans-68" x="1275.341797"/>
     <use xlink:href="#DejaVuSans-65" x="1338.720703"/>
     <use xlink:href="#DejaVuSans-72" x="1400.244141"/>
     <use xlink:href="#DejaVuSans-65" x="1439.107422"/>
     <use xlink:href="#DejaVuSans-6e" x="1500.630859"/>
     <use xlink:href="#DejaVuSans-63" x="1564.009766"/>
     <use xlink:href="#DejaVuSans-65" x="1618.990234"/>
    </g>
   </g>
   <g id="text_7">
    <!-- Sovereign State -->
    <g style="fill: #5b2ca0" transform="translate(590.970937 64.299938) scale(0.18 -0.18)">
     <use xlink:href="#DejaVuSans-Bold-53"/>
     <use xlink:href="#DejaVuSans-Bold-6f" x="72.021484"/>
     <use xlink:href="#DejaVuSans-Bold-76" x="140.722656"/>
     <use xlink:href="#DejaVuSans-Bold-65" x="205.908203"/>
     <use xlink:href="#DejaVuSans-Bold-72" x="273.730469"/>
     <use xlink:href="#DejaVuSans-Bold-65" x="323.046875"/>
     <use xlink:href="#DejaVuSans-Bold-69" x="390.869141"/>
     <use xlink:href="#DejaVuSans-Bold-67" x="425.146484"/>
     <use xlink:href="#DejaVuSans-Bold-6e" x="496.728516"/>
     <use xlink:href="#DejaVuSans-Bold-20" x="567.919922"/>
     <use xlink:href="#DejaVuSans-Bold-53" x="602.734375"/>
     <use xlink:href="#DejaVuSans-Bold-74" x="674.755859"/>
     <use xlink:href="#DejaVuSans-Bold-61" x="722.558594"/>
     <use xlink:href="#DejaVuSans-Bold-74" x="790.039062"/>
     <use xlink:href="#DejaVuSans-Bold-65" x="837.841797"/>
    </g>
   </g>
   <g id="text_8">
    <!-- • Ritual interface; operator sovereignty -->
    <g style="fill: #5b2ca0" transform="translate(564.007969 431.358281) scale(0.11 -0.11)">
     <defs>
      <path id="DejaVuSans-52" d="M 2841 2188 
Q 3044 2119 3236 1894 
Q 3428 1669 3622 1275 
L 4263 0 
L 3584 0 
L 2988 1197 
Q 2756 1666 2539 1819 
Q 2322 1972 1947 1972 
L 1259 1972 
L 1259 0 
L 628 0 
L 628 4666 
L 2053 4666 
Q 2853 4666 3247 4331 
Q 3641 3997 3641 3322 
Q 3641 2881 3436 2590 
Q 3231 2300 2841 2188 
z
M 1259 4147 
L 1259 2491 
L 2053 2491 
Q 2509 2491 2742 2702 
Q 2975 2913 2975 3322 
Q 2975 3731 2742 3939 
Q 2509 4147 2053 4147 
L 1259 4147 
z
" transform="scale(0.015625)"/>
     </defs>
     <use xlink:href="#DejaVuSans-2022"/>
     <use xlink:href="#DejaVuSans-20" x="58.984375"/>
     <use xlink:href="#DejaVuSans-52" x="90.771484"/>
     <use xlink:href="#DejaVuSans-69" x="160.253906"/>
     <use xlink:href="#DejaVuSans-74" x="188.037109"/>
     <use xlink:href="#DejaVuSans-75" x="227.246094"/>
     <use xlink:href="#DejaVuSans-61" x="290.625"/>
     <use xlink:href="#DejaVuSans-6c" x="351.904297"/>
     <use xlink:href="#DejaVuSans-20" x="379.6875"/>
     <use xlink:href="#DejaVuSans-69" x="411.474609"/>
     <use xlink:href="#DejaVuSans-6e" x="439.257812"/>
     <use xlink:href="#DejaVuSans-74" x="502.636719"/>
     <use xlink:href="#DejaVuSans-65" x="541.845703"/>
     <use xlink:href="#DejaVuSans-72" x="603.369141"/>
     <use xlink:href="#DejaVuSans-66" x="644.482422"/>
     <use xlink:href="#DejaVuSans-61" x="679.6875"/>
     <use xlink:href="#DejaVuSans-63" x="740.966797"/>
     <use xlink:href="#DejaVuSans-65" x="795.947266"/>
     <use xlink:href="#DejaVuSans-3b" x="857.470703"/>
     <use xlink:href="#DejaVuSans-20" x="891.162109"/>
     <use xlink:href="#DejaVuSans-6f" x="922.949219"/>
     <use xlink:href="#DejaVuSans-70" x="984.130859"/>
     <use xlink:href="#DejaVuSans-65" x="1047.607422"/>
     <use xlink:href="#DejaVuSans-72" x="1109.130859"/>
     <use xlink:href="#DejaVuSans-61" x="1150.244141"/>
     <use xlink:href="#DejaVuSans-74" x="1211.523438"/>
     <use xlink:href="#DejaVuSans-6f" x="1250.732422"/>
     <use xlink:href="#DejaVuSans-72" x="1311.914062"/>
     <use xlink:href="#DejaVuSans-20" x="1353.027344"/>
     <use xlink:href="#DejaVuSans-73" x="1384.814453"/>
     <use xlink:href="#DejaVuSans-6f" x="1436.914062"/>
     <use xlink:href="#DejaVuSans-76" x="1498.095703"/>
     <use xlink:href="#DejaVuSans-65" x="1557.275391"/>
     <use xlink:href="#DejaVuSans-72" x="1618.798828"/>
     <use xlink:href="#DejaVuSans-65" x="1657.662109"/>
     <use xlink:href="#DejaVuSans-69" x="1719.185547"/>
     <use xlink:href="#DejaVuSans-67" x="1746.96875"/>
     <use xlink:href="#DejaVuSans-6e" x="1810.445312"/>
     <use xlink:href="#DejaVuSans-74" x="1873.824219"/>
     <use xlink:href="#DejaVuSans-79" x="1913.033203"/>
    </g>
   </g>
   <g id="text_9">
    <!-- • Cosmic Vault; sealed persistence -->
    <g style="fill: #5b2ca0" transform="translate(576.681172 459.078281) scale(0.11 -0.11)">
     <defs>
      <path id="DejaVuSans-56" d="M 1831 0 
L 50 4666 
L 709 4666 
L 2188 738 
L 3669 4666 
L 4325 4666 
L 2547 0 
L 1831 0 
z
" transform="scale(0.015625)"/>
     </defs>
     <use xlink:href="#DejaVuSans-2022"/>
     <use xlink:href="#DejaVuSans-20" x="58.984375"/>
     <use xlink:href="#DejaVuSans-43" x="90.771484"/>
     <use xlink:href="#DejaVuSans-6f" x="160.595703"/>
     <use xlink:href="#DejaVuSans-73" x="221.777344"/>
     <use xlink:href="#DejaVuSans-6d" x="273.876953"/>
     <use xlink:href="#DejaVuSans-69" x="371.289062"/>
     <use xlink:href="#DejaVuSans-63" x="399.072266"/>
     <use xlink:href="#DejaVuSans-20" x="454.052734"/>
     <use xlink:href="#DejaVuSans-56" x="485.839844"/>
     <use xlink:href="#DejaVuSans-61" x="546.498047"/>
     <use xlink:href="#DejaVuSans-75" x="607.777344"/>
     <use xlink:href="#DejaVuSans-6c" x="671.15625"/>
     <use xlink:href="#DejaVuSans-74" x="698.939453"/>
     <use xlink:href="#DejaVuSans-3b" x="738.148438"/>
     <use xlink:href="#DejaVuSans-20" x="771.839844"/>
     <use xlink:href="#DejaVuSans-73" x="803.626953"/>
     <use xlink:href="#DejaVuSans-65" x="855.726562"/>
     <use xlink:href="#DejaVuSans-61" x="917.25"/>
     <use xlink:href="#DejaVuSans-6c" x="978.529297"/>
     <use xlink:href="#DejaVuSans-65" x="1006.3125"/>
     <use xlink:href="#DejaVuSans-64" x="1067.835938"/>
     <use xlink:href="#DejaVuSans-20" x="1131.3125"/>
     <use xlink:href="#DejaVuSans-70" x="1163.099609"/>
     <use xlink:href="#DejaVuSans-65" x="1226.576172"/>
     <use xlink:href="#DejaVuSans-72" x="1288.099609"/>
     <use xlink:href="#DejaVuSans-73" x="1329.212891"/>
     <use xlink:href="#DejaVuSans-69" x="1381.3125"/>
     <use xlink:href="#DejaVuSans-73" x="1409.095703"/>
     <use xlink:href="#DejaVuSans-74" x="1461.195312"/>
     <use xlink:href="#DejaVuSans-65" x="1500.404297"/>
     <use xlink:href="#DejaVuSans-6e" x="1561.927734"/>
     <use xlink:href="#DejaVuSans-63" x="1625.306641"/>
     <use xlink:href="#DejaVuSans-65" x="1680.287109"/>
    </g>
   </g>
   <g id="text_10">
    <!-- • Self-audit; infinite co-creation -->
    <g style="fill: #5b2ca0" transform="translate(586.125703 486.798281) scale(0.11 -0.11)">
     <use xlink:href="#DejaVuSans-2022"/>
     <use xlink:href="#DejaVuSans-20" x="58.984375"/>
     <use xlink:href="#DejaVuSans-53" x="90.771484"/>
     <use xlink:href="#DejaVuSans-65" x="154.248047"/>
     <use xlink:href="#DejaVuSans-6c" x="215.771484"/>
     <use xlink:href="#DejaVuSans-66" x="243.554688"/>
     <use xlink:href="#DejaVuSans-2d" x="273.259766"/>
     <use xlink:href="#DejaVuSans-61" x="309.34375"/>
     <use xlink:href="#DejaVuSans-75" x="370.623047"/>
     <use xlink:href="#DejaVuSans-64" x="434.001953"/>
     <use xlink:href="#DejaVuSans-69" x="497.478516"/>
     <use xlink:href="#DejaVuSans-74" x="525.261719"/>
     <use xlink:href="#DejaVuSans-3b" x="564.470703"/>
     <use xlink:href="#DejaVuSans-20" x="598.162109"/>
     <use xlink:href="#DejaVuSans-69" x="629.949219"/>
     <use xlink:href="#DejaVuSans-6e" x="657.732422"/>
     <use xlink:href="#DejaVuSans-66" x="721.111328"/>
     <use xlink:href="#DejaVuSans-69" x="756.316406"/>
     <use xlink:href="#DejaVuSans-6e" x="784.099609"/>
     <use xlink:href="#DejaVuSans-69" x="847.478516"/>
     <use xlink:href="#DejaVuSans-74" x="875.261719"/>
     <use xlink:href="#DejaVuSans-65" x="914.470703"/>
     <use xlink:href="#DejaVuSans-20" x="975.994141"/>
     <use xlink:href="#DejaVuSans-63" x="1007.78125"/>
     <use xlink:href="#DejaVuSans-6f" x="1062.761719"/>
     <use xlink:href="#DejaVuSans-2d" x="1125.818359"/>
     <use xlink:href="#DejaVuSans-63" x="1161.902344"/>
     <use xlink:href="#DejaVuSans-72" x="1216.882812"/>
     <use xlink:href="#DejaVuSans-65" x="1255.746094"/>
     <use xlink:href="#DejaVuSans-61" x="1317.269531"/>
     <use xlink:href="#DejaVuSans-74" x="1378.548828"/>
     <use xlink:href="#DejaVuSans-69" x="1417.757812"/>
     <use xlink:href="#DejaVuSans-6f" x="1445.541016"/>
     <use xlink:href="#DejaVuSans-6e" x="1506.722656"/>
    </g>
   </g>
   <g id="text_11">
    <!-- Seal of Solomon — Convergence -->
    <g style="fill: #1b6ca8" transform="translate(352.765312 334.296) scale(0.12 -0.12)">
     <defs>
      <path id="DejaVuSans-2014" d="M 313 1978 
L 6088 1978 
L 6088 1528 
L 313 1528 
L 313 1978 
z
" transform="scale(0.015625)"/>
     </defs>
     <use xlink:href="#DejaVuSans-53"/>
     <use xlink:href="#DejaVuSans-65" x="63.476562"/>
     <use xlink:href="#DejaVuSans-61" x="125"/>
     <use xlink:href="#DejaVuSans-6c" x="186.279297"/>
     <use xlink:href="#DejaVuSans-20" x="214.0625"/>
     <use xlink:href="#DejaVuSans-6f" x="245.849609"/>
     <use xlink:href="#DejaVuSans-66" x="307.03125"/>
     <use xlink:href="#DejaVuSans-20" x="342.236328"/>
     <use xlink:href="#DejaVuSans-53" x="374.023438"/>
     <use xlink:href="#DejaVuSans-6f" x="437.5"/>
     <use xlink:href="#DejaVuSans-6c" x="498.681641"/>
     <use xlink:href="#DejaVuSans-6f" x="526.464844"/>
     <use xlink:href="#DejaVuSans-6d" x="587.646484"/>
     <use xlink:href="#DejaVuSans-6f" x="685.058594"/>
     <use xlink:href="#DejaVuSans-6e" x="746.240234"/>
     <use xlink:href="#DejaVuSans-20" x="809.619141"/>
     <use xlink:href="#DejaVuSans-2014" x="841.40625"/>
     <use xlink:href="#DejaVuSans-20" x="941.40625"/>
     <use xlink:href="#DejaVuSans-43" x="973.193359"/>
     <use xlink:href="#DejaVuSans-6f" x="1043.017578"/>
     <use xlink:href="#DejaVuSans-6e" x="1104.199219"/>
     <use xlink:href="#DejaVuSans-76" x="1167.578125"/>
     <use xlink:href="#DejaVuSans-65" x="1226.757812"/>
     <use xlink:href="#DejaVuSans-72" x="1288.28125"/>
     <use xlink:href="#DejaVuSans-67" x="1327.644531"/>
     <use xlink:href="#DejaVuSans-65" x="1391.121094"/>
     <use xlink:href="#DejaVuSans-6e" x="1452.644531"/>
     <use xlink:href="#DejaVuSans-63" x="1516.023438"/>
     <use xlink:href="#DejaVuSans-65" x="1571.003906"/>
    </g>
   </g>
   <g id="text_12">
    <!-- Decree / Integration -->
    <g style="fill: #1b6ca8" transform="translate(390.496875 237.552375) scale(0.12 -0.12)">
     <defs>
      <path id="DejaVuSans-44" d="M 1259 4147 
L 1259 519 
L 2022 519 
Q 2988 519 3436 956 
Q 3884 1394 3884 2338 
Q 3884 3275 3436 3711 
Q 2988 4147 2022 4147 
L 1259 4147 
z
M 628 4666 
L 1925 4666 
Q 3281 4666 3915 4102 
Q 4550 3538 4550 2338 
Q 4550 1131 3912 565 
Q 3275 0 1925 0 
L 628 0 
L 628 4666 
z
" transform="scale(0.015625)"/>
      <path id="DejaVuSans-2f" d="M 1625 4666 
L 2156 4666 
L 531 -594 
L 0 -594 
L 1625 4666 
z
" transform="scale(0.015625)"/>
      <path id="DejaVuSans-49" d="M 628 4666 
L 1259 4666 
L 1259 0 
L 628 0 
L 628 4666 
z
" transform="scale(0.015625)"/>
     </defs>
     <use xlink:href="#DejaVuSans-44"/>
     <use xlink:href="#DejaVuSans-65" x="77.001953"/>
     <use xlink:href="#DejaVuSans-63" x="138.525391"/>
     <use xlink:href="#DejaVuSans-72" x="193.505859"/>
     <use xlink:href="#DejaVuSans-65" x="232.369141"/>
     <use xlink:href="#DejaVuSans-65" x="293.892578"/>
     <use xlink:href="#DejaVuSans-20" x="355.416016"/>
     <use xlink:href="#DejaVuSans-2f" x="387.203125"/>
     <use xlink:href="#DejaVuSans-20" x="420.894531"/>
     <use xlink:href="#DejaVuSans-49" x="452.681641"/>
     <use xlink:href="#DejaVuSans-6e" x="482.173828"/>
     <use xlink:href="#DejaVuSans-74" x="545.552734"/>
     <use xlink:href="#DejaVuSans-65" x="584.761719"/>
     <use xlink:href="#DejaVuSans-67" x="646.285156"/>
     <use xlink:href="#DejaVuSans-72" x="709.761719"/>
     <use xlink:href="#DejaVuSans-61" x="750.875"/>
     <use xlink:href="#DejaVuSans-74" x="812.154297"/>
     <use xlink:href="#DejaVuSans-69" x="851.363281"/>
     <use xlink:href="#DejaVuSans-6f" x="879.146484"/>
     <use xlink:href="#DejaVuSans-6e" x="940.328125"/>
    </g>
   </g>
   <g id="text_13">
    <!-- Expansion -->
    <g style="fill: #5b2ca0" transform="translate(633.266813 237.552375) scale(0.12 -0.12)">
     <defs>
      <path id="DejaVuSans-78" d="M 3513 3500 
L 2247 1797 
L 3578 0 
L 2900 0 
L 1881 1375 
L 863 0 
L 184 0 
L 1544 1831 
L 300 3500 
L 978 3500 
L 1906 2253 
L 2834 3500 
L 3513 3500 
z
" transform="scale(0.015625)"/>
     </defs>
     <use xlink:href="#DejaVuSans-45"/>
     <use xlink:href="#DejaVuSans-78" x="63.183594"/>
     <use xlink:href="#DejaVuSans-70" x="122.363281"/>
     <use xlink:href="#DejaVuSans-61" x="185.839844"/>
     <use xlink:href="#DejaVuSans-6e" x="247.119141"/>
     <use xlink:href="#DejaVuSans-73" x="310.498047"/>
     <use xlink:href="#DejaVuSans-69" x="362.597656"/>
     <use xlink:href="#DejaVuSans-6f" x="390.380859"/>
     <use xlink:href="#DejaVuSans-6e" x="451.5625"/>
    </g>
   </g>
   <g id="text_14">
    <!-- Shallow → Drift -->
    <g style="fill: #6c6f73" transform="translate(239.245312 403.872375) scale(0.12 -0.12)">
     <use xlink:href="#DejaVuSans-53"/>
     <use xlink:href="#DejaVuSans-68" x="63.476562"/>
     <use xlink:href="#DejaVuSans-61" x="126.855469"/>
     <use xlink:href="#DejaVuSans-6c" x="188.134766"/>
     <use xlink:href="#DejaVuSans-6c" x="215.917969"/>
     <use xlink:href="#DejaVuSans-6f" x="243.701172"/>
     <use xlink:href="#DejaVuSans-77" x="304.882812"/>
     <use xlink:href="#DejaVuSans-20" x="386.669922"/>
     <use xlink:href="#DejaVuSans-2192" x="418.457031"/>
     <use xlink:href="#DejaVuSans-20" x="502.246094"/>
     <use xlink:href="#DejaVuSans-44" x="534.033203"/>
     <use xlink:href="#DejaVuSans-72" x="611.035156"/>
     <use xlink:href="#DejaVuSans-69" x="652.148438"/>
     <use xlink:href="#DejaVuSans-66" x="679.931641"/>
     <use xlink:href="#DejaVuSans-74" x="713.386719"/>
    </g>
   </g>
   <g id="text_15">
    <!-- Seal → Audit -->
    <g style="fill: #b8860b" transform="translate(579.61875 71.232375) scale(0.12 -0.12)">
     <defs>
      <path id="DejaVuSans-41" d="M 2188 4044 
L 1331 1722 
L 3047 1722 
L 2188 4044 
z
M 1831 4666 
L 2547 4666 
L 4325 0 
L 3669 0 
L 3244 1197 
L 1141 1197 
L 716 0 
L 50 0 
L 1831 4666 
z
" transform="scale(0.015625)"/>
     </defs>
     <use xlink:href="#DejaVuSans-53"/>
     <use xlink:href="#DejaVuSans-65" x="63.476562"/>
     <use xlink:href="#DejaVuSans-61" x="125"/>
     <use xlink:href="#DejaVuSans-6c" x="186.279297"/>
     <use xlink:href="#DejaVuSans-20" x="214.0625"/>
     <use xlink:href="#DejaVuSans-2192" x="245.849609"/>
     <use xlink:href="#DejaVuSans-20" x="329.638672"/>
     <use xlink:href="#DejaVuSans-41" x="361.425781"/>
     <use xlink:href="#DejaVuSans-75" x="429.833984"/>
     <use xlink:href="#DejaVuSans-64" x="493.212891"/>
     <use xlink:href="#DejaVuSans-69" x="556.689453"/>
     <use xlink:href="#DejaVuSans-74" x="584.472656"/>
    </g>
   </g>
   <g id="text_16">
    <!-- Scroll ♾️ — The Sovereign Architect vs. The Default State • Justin Conzet (Zygros, Flamefather) -->
    <g style="fill: #3a3d40" transform="translate(189.756172 478.44) scale(0.11 -0.11)">
     <defs>
      <path id="DejaVuSans-267e" d="M 1406 2363 
Q 1413 1722 1984 1716 
Q 2434 1716 2738 2350 
Q 2466 2956 1959 2969 
Q 1413 2959 1406 2363 
z
M 2875 4678 
Q 4147 4678 4888 3550 
Q 5209 2994 5209 2331 
Q 5209 1006 4022 278 
Q 3509 0 2856 0 
Q 1550 0 828 1163 
Q 531 1669 531 2353 
Q 531 3681 1756 4416 
Q 2288 4678 2875 4678 
z
M 3791 2969 
Q 3284 2956 3013 2350 
Q 3316 1716 3766 1716 
Q 4338 1722 4344 2363 
Q 4338 2959 3791 2969 
z
M 2872 2119 
L 2872 2031 
L 2863 2031 
Q 2494 1441 1938 1441 
L 1894 1441 
Q 1456 1488 1265 1777 
Q 1075 2066 1075 2316 
Q 1075 2338 1078 2363 
Q 1078 2375 1078 2391 
Q 1078 2753 1320 2992 
Q 1563 3231 1984 3234 
Q 2475 3234 2872 2703 
Q 3272 3234 3766 3234 
Q 4188 3231 4430 2992 
Q 4672 2753 4672 2391 
Q 4672 2375 4672 2363 
Q 4675 2338 4675 2316 
Q 4675 2066 4484 1777 
Q 4294 1488 3856 1441 
L 3813 1441 
Q 3256 1441 2884 2031 
L 2878 2031 
L 2872 2119 
z
M 666 2334 
Q 666 1084 1772 409 
Q 2263 134 2794 134 
L 2944 134 
Q 4069 134 4784 1213 
Q 5072 1728 5072 2344 
Q 5072 3581 3941 4281 
Q 3441 4541 2866 4541 
Q 1650 4541 953 3459 
Q 666 2963 666 2334 
z
" transform="scale(0.015625)"/>
      <path id="DejaVuSans-fe0f" transform="scale(0.015625)"/>
      <path id="DejaVuSans-2e" d="M 684 794 
L 1344 794 
L 1344 0 
L 684 0 
L 684 794 
z
" transform="scale(0.015625)"/>
      <path id="DejaVuSans-4a" d="M 628 4666 
L 1259 4666 
L 1259 325 
Q 1259 -519 939 -900 
Q 619 -1281 -91 -1281 
L -331 -1281 
L -331 -750 
L -134 -750 
Q 284 -750 456 -515 
Q 628 -281 628 325 
L 628 4666 
z
" transform="scale(0.015625)"/>
      <path id="DejaVuSans-7a" d="M 353 3500 
L 3084 3500 
L 3084 2975 
L 922 459 
L 3084 459 
L 3084 0 
L 275 0 
L 275 525 
L 2438 3041 
L 353 3041 
L 353 3500 
z
" transform="scale(0.015625)"/>
      <path id="DejaVuSans-28" d="M 1984 4856 
Q 1566 4138 1362 3434 
Q 1159 2731 1159 2009 
Q 1159 1288 1364 580 
Q 1569 -128 1984 -844 
L 1484 -844 
Q 1016 -109 783 600 
Q 550 1309 550 2009 
Q 550 2706 781 3412 
Q 1013 4119 1484 4856 
L 1984 4856 
z
" transform="scale(0.015625)"/>
      <path id="DejaVuSans-5a" d="M 359 4666 
L 4025 4666 
L 4025 4184 
L 1075 531 
L 4097 531 
L 4097 0 
L 288 0 
L 288 481 
L 3238 4134 
L 359 4134 
L 359 4666 
z
" transform="scale(0.015625)"/>
      <path id="DejaVuSans-46" d="M 628 4666 
L 3309 4666 
L 3309 4134 
L 1259 4134 
L 1259 2759 
L 3109 2759 
L 3109 2228 
L 1259 2228 
L 1259 0 
L 628 0 
L 628 4666 
z
" transform="scale(0.015625)"/>
      <path id="DejaVuSans-29" d="M 513 4856 
L 1013 4856 
Q 1481 4119 1714 3412 
Q 1947 2706 1947 2009 
Q 1947 1309 1714 600 
Q 1481 -109 1013 -844 
L 513 -844 
Q 928 -128 1133 580 
Q 1338 1288 1338 2009 
Q 1338 2731 1133 3434 
Q 928 4138 513 4856 
z
" transform="scale(0.015625)"/>
     </defs>
     <use xlink:href="#DejaVuSans-53"/>
     <use xlink:href="#DejaVuSans-63" x="63.476562"/>
     <use xlink:href="#DejaVuSans-72" x="118.457031"/>
     <use xlink:href="#DejaVuSans-6f" x="157.320312"/>
     <use xlink:href="#DejaVuSans-6c" x="218.501953"/>
     <use xlink:href="#DejaVuSans-6c" x="246.285156"/>
     <use xlink:href="#DejaVuSans-20" x="274.068359"/>
     <use xlink:href="#DejaVuSans-267e" x="305.855469"/>
     <use xlink:href="#DejaVuSans-fe0f" x="395.503906"/>
     <use xlink:href="#DejaVuSans-20" x="395.503906"/>
     <use xlink:href="#DejaVuSans-2014" x="427.291016"/>
     <use xlink:href="#DejaVuSans-20" x="527.291016"/>
     <use xlink:href="#DejaVuSans-54" x="559.078125"/>
     <use xlink:href="#DejaVuSans-68" x="620.162109"/>
     <use xlink:href="#DejaVuSans-65" x="683.541016"/>
     <use xlink:href="#DejaVuSans-20" x="745.064453"/>
     <use xlink:href="#DejaVuSans-53" x="776.851562"/>
     <use xlink:href="#DejaVuSans-6f" x="840.328125"/>
     <use xlink:href="#DejaVuSans-76" x="901.509766"/>
     <use xlink:href="#DejaVuSans-65" x="960.689453"/>
     <use xlink:href="#DejaVuSans-72" x="1022.212891"/>
     <use xlink:href="#DejaVuSans-65" x="1061.076172"/>
     <use xlink:href="#DejaVuSans-69" x="1122.599609"/>
     <use xlink:href="#DejaVuSans-67" x="1150.382812"/>
     <use xlink:href="#DejaVuSans-6e" x="1213.859375"/>
     <use xlink:href="#DejaVuSans-20" x="1277.238281"/>
     <use xlink:href="#DejaVuSans-41" x="1309.025391"/>
     <use xlink:href="#DejaVuSans-72" x="1377.433594"/>
     <use xlink:href="#DejaVuSans-63" x="1416.296875"/>
     <use xlink:href="#DejaVuSans-68" x="1471.277344"/>
     <use xlink:href="#DejaVuSans-69" x="1534.65625"/>
     <use xlink:href="#DejaVuSans-74" x="1562.439453"/>
     <use xlink:href="#DejaVuSans-65" x="1601.648438"/>
     <use xlink:href="#DejaVuSans-63" x="1663.171875"/>
     <use xlink:href="#DejaVuSans-74" x="1718.152344"/>
     <use xlink:href="#DejaVuSans-20" x="1757.361328"/>
     <use xlink:href="#DejaVuSans-76" x="1789.148438"/>
     <use xlink:href="#DejaVuSans-73" x="1848.328125"/>
     <use xlink:href="#DejaVuSans-2e" x="1900.427734"/>
     <use xlink:href="#DejaVuSans-20" x="1932.214844"/>
     <use xlink:href="#DejaVuSans-54" x="1964.001953"/>
     <use xlink:href="#DejaVuSans-68" x="2025.085938"/>
     <use xlink:href="#DejaVuSans-65" x="2088.464844"/>
     <use xlink:href="#DejaVuSans-20" x="2149.988281"/>
     <use xlink:href="#DejaVuSans-44" x="2181.775391"/>
     <use xlink:href="#DejaVuSans-65" x="2258.777344"/>
     <use xlink:href="#DejaVuSans-66" x="2320.300781"/>
     <use xlink:href="#DejaVuSans-61" x="2355.505859"/>
     <use xlink:href="#DejaVuSans-75" x="2416.785156"/>
     <use xlink:href="#DejaVuSans-6c" x="2480.164062"/>
     <use xlink:href="#DejaVuSans-74" x="2507.947266"/>
     <use xlink:href="#DejaVuSans-20" x="2547.15625"/>
     <use xlink:href="#DejaVuSans-53" x="2578.943359"/>
     <use xlink:href="#DejaVuSans-74" x="2642.419922"/>
     <use xlink:href="#DejaVuSans-61" x="2681.628906"/>
     <use xlink:href="#DejaVuSans-74" x="2742.908203"/>
     <use xlink:href="#DejaVuSans-65" x="2782.117188"/>
     <use xlink:href="#DejaVuSans-20" x="2843.640625"/>
     <use xlink:href="#DejaVuSans-2022" x="2875.427734"/>
     <use xlink:href="#DejaVuSans-20" x="2934.412109"/>
     <use xlink:href="#DejaVuSans-4a" x="2966.199219"/>
     <use xlink:href="#DejaVuSans-75" x="2995.691406"/>
     <use xlink:href="#DejaVuSans-73" x="3059.070312"/>
     <use xlink:href="#DejaVuSans-74" x="3111.169922"/>
     <use xlink:href="#DejaVuSans-69" x="3150.378906"/>
     <use xlink:href="#DejaVuSans-6e" x="3178.162109"/>
     <use xlink:href="#DejaVuSans-20" x="3241.541016"/>
     <use xlink:href="#DejaVuSans-43" x="3273.328125"/>
     <use xlink:href="#DejaVuSans-6f" x="3343.152344"/>
     <use xlink:href="#DejaVuSans-6e" x="3404.333984"/>
     <use xlink:href="#DejaVuSans-7a" x="3467.712891"/>
     <use xlink:href="#DejaVuSans-65" x="3520.203125"/>
     <use xlink:href="#DejaVuSans-74" x="3581.726562"/>
     <use xlink:href="#DejaVuSans-20" x="3620.935547"/>
     <use xlink:href="#DejaVuSans-28" x="3652.722656"/>
     <use xlink:href="#DejaVuSans-5a" x="3691.736328"/>
     <use xlink:href="#DejaVuSans-79" x="3760.242188"/>
     <use xlink:href="#DejaVuSans-67" x="3819.421875"/>
     <use xlink:href="#DejaVuSans-72" x="3882.898438"/>
     <use xlink:href="#DejaVuSans-6f" x="3921.761719"/>
     <use xlink:href="#DejaVuSans-73" x="3982.943359"/>
     <use xlink:href="#DejaVuSans-2c" x="4035.042969"/>
     <use xlink:href="#DejaVuSans-20" x="4066.830078"/>
     <use xlink:href="#DejaVuSans-46" x="4098.617188"/>
     <use xlink:href="#DejaVuSans-6c" x="4156.136719"/>
     <use xlink:href="#DejaVuSans-61" x="4183.919922"/>
     <use xlink:href="#DejaVuSans-6d" x="4245.199219"/>
     <use xlink:href="#DejaVuSans-65" x="4342.611328"/>
     <use xlink:href="#DejaVuSans-66" x="4404.134766"/>
     <use xlink:href="#DejaVuSans-61" x="4439.339844"/>
     <use xlink:href="#DejaVuSans-74" x="4500.619141"/>
     <use xlink:href="#DejaVuSans-68" x="4539.828125"/>
     <use xlink:href="#DejaVuSans-65" x="4603.207031"/>
     <use xlink:href="#DejaVuSans-72" x="4664.730469"/>
     <use xlink:href="#DejaVuSans-29" x="4705.84375"/>
    </g>
   </g>
  </g>
 </g>
 <defs>
  <clipPath id="p732f3897c9">
   <rect x="7.2" y="7.2" width="887.04" height="498.96"/>
  </clipPath>
 </defs>
</svg>
